<svg xmlns="http://www.w3.org/2000/svg" viewBox="0 0 880 258" width="880" height="258" role="img" aria-label="EURCAD long order block: the candles that formed it, and where price is now"><rect width="880" height="258" fill="#FFFFFF"/><text x="10" y="22" fill="#12171A" font-family="system-ui,-apple-system,Segoe UI,Helvetica,Arial,sans-serif" font-size="15" font-weight="700">EURCAD <tspan fill="#1E7A4C" font-size="12">LONG</tspan> <tspan fill="#667078" font-size="12">daily block</tspan></text><text x="10" y="38" fill="#667078" font-family="ui-monospace,SFMono-Regular,Menlo,Consolas,monospace" font-size="11">limit 1.61050 · stop 1.60271 · 78p = 1R · 0.00R away · waited 0d</text><text x="20" y="42" fill="#667078" font-family="system-ui,-apple-system,Segoe UI,Helvetica,Arial,sans-serif" font-size="10" font-weight="600">HOW IT FORMED · 2026-09-22T21:00:00.000000000Z</text><text x="360" y="42" fill="#667078" font-family="system-ui,-apple-system,Segoe UI,Helvetica,Arial,sans-serif" font-size="10" font-weight="600">WHERE PRICE IS NOW</text><rect x="10.0" y="97.8" width="272.0" height="72.2" fill="#0E6E6B1F"/><line x1="10.0" y1="84.0" x2="282.0" y2="84.0" stroke="#667078" stroke-width="1" stroke-dasharray="1 3"/><line x1="10.0" y1="97.8" x2="282.0" y2="97.8" stroke="#0E6E6B" stroke-width="1.4"/><line x1="20.0" y1="122.8" x2="20.0" y2="157.0" stroke="#12171A" stroke-width="1"/><rect x="14.5" y="142.5" width="11.0" height="2.4" fill="#FFFFFF" stroke="#12171A" stroke-width="1"/><line x1="72.0" y1="103.6" x2="72.0" y2="151.4" stroke="#12171A" stroke-width="1"/><rect x="66.5" y="114.2" width="11.0" height="23.9" fill="#FFFFFF" stroke="#12171A" stroke-width="1"/><line x1="124.0" y1="96.4" x2="124.0" y2="142.7" stroke="#12171A" stroke-width="1"/><rect x="118.5" y="101.0" width="11.0" height="9.0" fill="#FFFFFF" stroke="#12171A" stroke-width="1"/><line x1="176.0" y1="97.8" x2="176.0" y2="170.1" stroke="#12171A" stroke-width="1"/><rect x="170.5" y="103.6" width="11.0" height="45.2" fill="#12171A" stroke="#12171A" stroke-width="1"/><line x1="228.0" y1="110.4" x2="228.0" y2="171.6" stroke="#12171A" stroke-width="1"/><rect x="222.5" y="115.6" width="11.0" height="42.4" fill="#FFFFFF" stroke="#12171A" stroke-width="1"/><line x1="280.0" y1="66.4" x2="280.0" y2="122.1" stroke="#12171A" stroke-width="1"/><rect x="274.5" y="97.7" width="11.0" height="22.1" fill="#FFFFFF" stroke="#12171A" stroke-width="1"/><rect x="167.5" y="94.8" width="17.0" height="78.2" fill="none" stroke="#0E6E6B" stroke-width="1.6" rx="2"/><text x="280.0" y="65" fill="#0E6E6B" text-anchor="middle" font-family="ui-monospace,SFMono-Regular,Menlo,Consolas,monospace" font-size="10" font-weight="700">C</text><line x1="10.0" y1="198.0" x2="282.0" y2="198.0" stroke="#E6EBEE" stroke-width="1"/><line x1="20.0" y1="198.0" x2="20.0" y2="201.0" stroke="#CBD4D9" stroke-width="1"/><text x="20.0" y="210.0" fill="#667078" text-anchor="start" font-family="ui-monospace,SFMono-Regular,Menlo,Consolas,monospace" font-size="9.5">09-17</text><line x1="124.0" y1="198.0" x2="124.0" y2="201.0" stroke="#CBD4D9" stroke-width="1"/><text x="124.0" y="210.0" fill="#667078" text-anchor="middle" font-family="ui-monospace,SFMono-Regular,Menlo,Consolas,monospace" font-size="9.5">09-21</text><line x1="228.0" y1="198.0" x2="228.0" y2="201.0" stroke="#CBD4D9" stroke-width="1"/><text x="228.0" y="210.0" fill="#667078" text-anchor="end" font-family="ui-monospace,SFMono-Regular,Menlo,Consolas,monospace" font-size="9.5">09-23</text><text x="286.0" y="101.2" fill="#0E6E6B" font-family="ui-monospace,SFMono-Regular,Menlo,Consolas,monospace" font-size="10">1.61050</text><text x="286.0" y="87.4" fill="#667078" font-family="ui-monospace,SFMono-Regular,Menlo,Consolas,monospace" font-size="10">1.61186</text><rect x="354.0" y="130.6" width="458.0" height="27.9" fill="#0E6E6B1F"/><line x1="360.0" y1="69.0" x2="360.0" y2="83.5" stroke="#12171A" stroke-width="1"/><rect x="357.6" y="73.1" width="4.7" height="5.4" fill="#FFFFFF" stroke="#12171A" stroke-width="1"/><line x1="367.6" y1="66.4" x2="367.6" y2="92.2" stroke="#12171A" stroke-width="1"/><rect x="365.3" y="73.0" width="4.7" height="18.7" fill="#12171A" stroke="#12171A" stroke-width="1"/><line x1="375.3" y1="90.4" x2="375.3" y2="114.4" stroke="#12171A" stroke-width="1"/><rect x="372.9" y="92.1" width="4.7" height="8.7" fill="#12171A" stroke="#12171A" stroke-width="1"/><line x1="382.9" y1="84.1" x2="382.9" y2="103.2" stroke="#12171A" stroke-width="1"/><rect x="380.5" y="96.1" width="4.7" height="6.7" fill="#FFFFFF" stroke="#12171A" stroke-width="1"/><line x1="390.5" y1="90.1" x2="390.5" y2="116.2" stroke="#12171A" stroke-width="1"/><rect x="388.1" y="94.8" width="4.7" height="14.7" fill="#12171A" stroke="#12171A" stroke-width="1"/><line x1="398.1" y1="102.4" x2="398.1" y2="130.3" stroke="#12171A" stroke-width="1"/><rect x="395.8" y="115.9" width="4.7" height="12.5" fill="#12171A" stroke="#12171A" stroke-width="1"/><line x1="405.8" y1="121.6" x2="405.8" y2="151.8" stroke="#12171A" stroke-width="1"/><rect x="403.4" y="127.9" width="4.7" height="21.5" fill="#12171A" stroke="#12171A" stroke-width="1"/><line x1="413.4" y1="129.8" x2="413.4" y2="153.1" stroke="#12171A" stroke-width="1"/><rect x="411.0" y="134.1" width="4.7" height="13.0" fill="#FFFFFF" stroke="#12171A" stroke-width="1"/><line x1="421.0" y1="126.5" x2="421.0" y2="155.2" stroke="#12171A" stroke-width="1"/><rect x="418.7" y="135.9" width="4.7" height="9.7" fill="#12171A" stroke="#12171A" stroke-width="1"/><line x1="428.6" y1="143.0" x2="428.6" y2="167.2" stroke="#12171A" stroke-width="1"/><rect x="426.3" y="144.9" width="4.7" height="12.2" fill="#12171A" stroke="#12171A" stroke-width="1"/><line x1="436.3" y1="148.2" x2="436.3" y2="166.5" stroke="#12171A" stroke-width="1"/><rect x="433.9" y="148.8" width="4.7" height="17.6" fill="#FFFFFF" stroke="#12171A" stroke-width="1"/><line x1="443.9" y1="136.0" x2="443.9" y2="150.7" stroke="#12171A" stroke-width="1"/><rect x="441.5" y="139.9" width="4.7" height="5.2" fill="#FFFFFF" stroke="#12171A" stroke-width="1"/><line x1="451.5" y1="135.6" x2="451.5" y2="146.1" stroke="#12171A" stroke-width="1"/><rect x="449.2" y="139.1" width="4.7" height="3.0" fill="#12171A" stroke="#12171A" stroke-width="1"/><line x1="459.2" y1="140.4" x2="459.2" y2="170.6" stroke="#12171A" stroke-width="1"/><rect x="456.8" y="144.5" width="4.7" height="18.4" fill="#12171A" stroke="#12171A" stroke-width="1"/><line x1="466.8" y1="153.8" x2="466.8" y2="166.5" stroke="#12171A" stroke-width="1"/><rect x="464.4" y="162.0" width="4.7" height="1.0" fill="#FFFFFF" stroke="#12171A" stroke-width="1"/><line x1="474.4" y1="135.8" x2="474.4" y2="157.6" stroke="#12171A" stroke-width="1"/><rect x="472.0" y="149.8" width="4.7" height="1.0" fill="#FFFFFF" stroke="#12171A" stroke-width="1"/><line x1="482.0" y1="144.3" x2="482.0" y2="161.8" stroke="#12171A" stroke-width="1"/><rect x="479.7" y="146.7" width="4.7" height="3.3" fill="#FFFFFF" stroke="#12171A" stroke-width="1"/><line x1="489.7" y1="127.3" x2="489.7" y2="159.9" stroke="#12171A" stroke-width="1"/><rect x="487.3" y="129.4" width="4.7" height="17.0" fill="#FFFFFF" stroke="#12171A" stroke-width="1"/><line x1="497.3" y1="109.9" x2="497.3" y2="140.5" stroke="#12171A" stroke-width="1"/><rect x="494.9" y="113.1" width="4.7" height="20.4" fill="#FFFFFF" stroke="#12171A" stroke-width="1"/><line x1="504.9" y1="101.2" x2="504.9" y2="143.9" stroke="#12171A" stroke-width="1"/><rect x="502.6" y="109.1" width="4.7" height="3.7" fill="#FFFFFF" stroke="#12171A" stroke-width="1"/><line x1="512.5" y1="95.2" x2="512.5" y2="112.6" stroke="#12171A" stroke-width="1"/><rect x="510.2" y="100.9" width="4.7" height="6.2" fill="#12171A" stroke="#12171A" stroke-width="1"/><line x1="520.2" y1="83.4" x2="520.2" y2="112.5" stroke="#12171A" stroke-width="1"/><rect x="517.8" y="86.9" width="4.7" height="18.3" fill="#FFFFFF" stroke="#12171A" stroke-width="1"/><line x1="527.8" y1="74.0" x2="527.8" y2="101.1" stroke="#12171A" stroke-width="1"/><rect x="525.4" y="87.1" width="4.7" height="10.8" fill="#12171A" stroke="#12171A" stroke-width="1"/><line x1="535.4" y1="95.2" x2="535.4" y2="115.7" stroke="#12171A" stroke-width="1"/><rect x="533.1" y="97.5" width="4.7" height="16.1" fill="#12171A" stroke="#12171A" stroke-width="1"/><line x1="543.1" y1="101.4" x2="543.1" y2="133.7" stroke="#12171A" stroke-width="1"/><rect x="540.7" y="113.0" width="4.7" height="14.6" fill="#12171A" stroke="#12171A" stroke-width="1"/><line x1="550.7" y1="118.5" x2="550.7" y2="139.2" stroke="#12171A" stroke-width="1"/><rect x="548.3" y="118.8" width="4.7" height="17.6" fill="#12171A" stroke="#12171A" stroke-width="1"/><line x1="558.3" y1="134.4" x2="558.3" y2="149.5" stroke="#12171A" stroke-width="1"/><rect x="555.9" y="136.3" width="4.7" height="6.7" fill="#12171A" stroke="#12171A" stroke-width="1"/><line x1="565.9" y1="136.5" x2="565.9" y2="148.0" stroke="#12171A" stroke-width="1"/><rect x="563.6" y="144.5" width="4.7" height="2.1" fill="#12171A" stroke="#12171A" stroke-width="1"/><line x1="573.6" y1="134.2" x2="573.6" y2="150.3" stroke="#12171A" stroke-width="1"/><rect x="571.2" y="144.9" width="4.7" height="3.4" fill="#12171A" stroke="#12171A" stroke-width="1"/><line x1="581.2" y1="142.1" x2="581.2" y2="156.3" stroke="#12171A" stroke-width="1"/><rect x="578.8" y="148.1" width="4.7" height="2.9" fill="#12171A" stroke="#12171A" stroke-width="1"/><line x1="588.8" y1="136.9" x2="588.8" y2="154.3" stroke="#12171A" stroke-width="1"/><rect x="586.4" y="146.0" width="4.7" height="6.6" fill="#FFFFFF" stroke="#12171A" stroke-width="1"/><line x1="596.4" y1="132.0" x2="596.4" y2="154.5" stroke="#12171A" stroke-width="1"/><rect x="594.1" y="138.4" width="4.7" height="7.5" fill="#FFFFFF" stroke="#12171A" stroke-width="1"/><line x1="604.1" y1="118.4" x2="604.1" y2="144.6" stroke="#12171A" stroke-width="1"/><rect x="601.7" y="123.3" width="4.7" height="16.5" fill="#FFFFFF" stroke="#12171A" stroke-width="1"/><line x1="611.7" y1="122.0" x2="611.7" y2="140.2" stroke="#12171A" stroke-width="1"/><rect x="609.3" y="123.8" width="4.7" height="7.8" fill="#12171A" stroke="#12171A" stroke-width="1"/><line x1="619.3" y1="129.6" x2="619.3" y2="150.4" stroke="#12171A" stroke-width="1"/><rect x="617.0" y="130.6" width="4.7" height="12.2" fill="#12171A" stroke="#12171A" stroke-width="1"/><line x1="626.9" y1="109.5" x2="626.9" y2="131.4" stroke="#12171A" stroke-width="1"/><rect x="624.6" y="113.6" width="4.7" height="6.3" fill="#FFFFFF" stroke="#12171A" stroke-width="1"/><line x1="634.6" y1="103.4" x2="634.6" y2="118.0" stroke="#12171A" stroke-width="1"/><rect x="632.2" y="109.9" width="4.7" height="4.3" fill="#FFFFFF" stroke="#12171A" stroke-width="1"/><line x1="642.2" y1="98.5" x2="642.2" y2="112.3" stroke="#12171A" stroke-width="1"/><rect x="639.8" y="105.1" width="4.7" height="7.1" fill="#FFFFFF" stroke="#12171A" stroke-width="1"/><line x1="649.8" y1="98.9" x2="649.8" y2="119.1" stroke="#12171A" stroke-width="1"/><rect x="647.5" y="106.4" width="4.7" height="9.5" fill="#12171A" stroke="#12171A" stroke-width="1"/><line x1="657.5" y1="113.9" x2="657.5" y2="132.2" stroke="#12171A" stroke-width="1"/><rect x="655.1" y="116.9" width="4.7" height="14.8" fill="#12171A" stroke="#12171A" stroke-width="1"/><line x1="665.1" y1="123.6" x2="665.1" y2="137.6" stroke="#12171A" stroke-width="1"/><rect x="662.7" y="128.4" width="4.7" height="6.3" fill="#12171A" stroke="#12171A" stroke-width="1"/><line x1="672.7" y1="122.8" x2="672.7" y2="142.2" stroke="#12171A" stroke-width="1"/><rect x="670.3" y="129.2" width="4.7" height="4.4" fill="#FFFFFF" stroke="#12171A" stroke-width="1"/><line x1="680.3" y1="117.9" x2="680.3" y2="160.7" stroke="#12171A" stroke-width="1"/><rect x="678.0" y="132.0" width="4.7" height="23.1" fill="#12171A" stroke="#12171A" stroke-width="1"/><line x1="688.0" y1="150.5" x2="688.0" y2="166.7" stroke="#12171A" stroke-width="1"/><rect x="685.6" y="157.7" width="4.7" height="1.0" fill="#12171A" stroke="#12171A" stroke-width="1"/><line x1="695.6" y1="133.4" x2="695.6" y2="168.5" stroke="#12171A" stroke-width="1"/><rect x="693.2" y="144.3" width="4.7" height="13.5" fill="#FFFFFF" stroke="#12171A" stroke-width="1"/><line x1="703.2" y1="139.6" x2="703.2" y2="151.6" stroke="#12171A" stroke-width="1"/><rect x="700.9" y="146.2" width="4.7" height="3.7" fill="#12171A" stroke="#12171A" stroke-width="1"/><line x1="710.8" y1="147.9" x2="710.8" y2="171.6" stroke="#12171A" stroke-width="1"/><rect x="708.5" y="150.2" width="4.7" height="14.1" fill="#12171A" stroke="#12171A" stroke-width="1"/><line x1="718.5" y1="143.4" x2="718.5" y2="165.1" stroke="#12171A" stroke-width="1"/><rect x="716.1" y="148.4" width="4.7" height="14.4" fill="#FFFFFF" stroke="#12171A" stroke-width="1"/><line x1="726.1" y1="142.8" x2="726.1" y2="160.3" stroke="#12171A" stroke-width="1"/><rect x="723.7" y="148.8" width="4.7" height="1.0" fill="#FFFFFF" stroke="#12171A" stroke-width="1"/><line x1="733.7" y1="125.2" x2="733.7" y2="151.6" stroke="#12171A" stroke-width="1"/><rect x="731.4" y="136.2" width="4.7" height="11.1" fill="#FFFFFF" stroke="#12171A" stroke-width="1"/><line x1="741.4" y1="136.5" x2="741.4" y2="165.3" stroke="#12171A" stroke-width="1"/><rect x="739.0" y="139.0" width="4.7" height="11.0" fill="#12171A" stroke="#12171A" stroke-width="1"/><line x1="749.0" y1="138.2" x2="749.0" y2="160.0" stroke="#12171A" stroke-width="1"/><rect x="746.6" y="145.9" width="4.7" height="2.6" fill="#FFFFFF" stroke="#12171A" stroke-width="1"/><line x1="756.6" y1="131.9" x2="756.6" y2="158.8" stroke="#12171A" stroke-width="1"/><rect x="754.2" y="150.0" width="4.7" height="7.7" fill="#12171A" stroke="#12171A" stroke-width="1"/><line x1="764.2" y1="143.1" x2="764.2" y2="161.1" stroke="#12171A" stroke-width="1"/><rect x="761.9" y="150.6" width="4.7" height="4.8" fill="#FFFFFF" stroke="#12171A" stroke-width="1"/><line x1="771.9" y1="140.2" x2="771.9" y2="153.4" stroke="#12171A" stroke-width="1"/><rect x="769.5" y="147.8" width="4.7" height="1.0" fill="#FFFFFF" stroke="#12171A" stroke-width="1"/><line x1="779.5" y1="132.8" x2="779.5" y2="151.2" stroke="#12171A" stroke-width="1"/><rect x="777.1" y="136.9" width="4.7" height="9.2" fill="#FFFFFF" stroke="#12171A" stroke-width="1"/><line x1="787.1" y1="130.0" x2="787.1" y2="147.9" stroke="#12171A" stroke-width="1"/><rect x="784.8" y="131.8" width="4.7" height="3.5" fill="#FFFFFF" stroke="#12171A" stroke-width="1"/><line x1="794.7" y1="130.6" x2="794.7" y2="158.4" stroke="#12171A" stroke-width="1"/><rect x="792.4" y="132.8" width="4.7" height="17.4" fill="#12171A" stroke="#12171A" stroke-width="1"/><line x1="802.4" y1="135.4" x2="802.4" y2="159.0" stroke="#12171A" stroke-width="1"/><rect x="800.0" y="137.4" width="4.7" height="16.4" fill="#FFFFFF" stroke="#12171A" stroke-width="1"/><line x1="810.0" y1="118.4" x2="810.0" y2="139.9" stroke="#12171A" stroke-width="1"/><rect x="807.6" y="130.5" width="4.7" height="8.5" fill="#FFFFFF" stroke="#12171A" stroke-width="1"/><line x1="354.0" y1="130.6" x2="812.0" y2="130.6" stroke="#0E6E6B" stroke-width="1.4"/><line x1="354.0" y1="161.2" x2="812.0" y2="161.2" stroke="#1E7A4C" stroke-width="1.4" stroke-dasharray="4 3"/><circle cx="810.0" cy="130.5" r="3.6" fill="#12171A"/><line x1="354.0" y1="198.0" x2="812.0" y2="198.0" stroke="#E6EBEE" stroke-width="1"/><line x1="360.0" y1="198.0" x2="360.0" y2="201.0" stroke="#CBD4D9" stroke-width="1"/><text x="360.0" y="210.0" fill="#667078" text-anchor="start" font-family="ui-monospace,SFMono-Regular,Menlo,Consolas,monospace" font-size="9.5">07-05</text><line x1="474.4" y1="198.0" x2="474.4" y2="201.0" stroke="#CBD4D9" stroke-width="1"/><text x="474.4" y="210.0" fill="#667078" text-anchor="middle" font-family="ui-monospace,SFMono-Regular,Menlo,Consolas,monospace" font-size="9.5">07-26</text><line x1="588.8" y1="198.0" x2="588.8" y2="201.0" stroke="#CBD4D9" stroke-width="1"/><text x="588.8" y="210.0" fill="#667078" text-anchor="middle" font-family="ui-monospace,SFMono-Regular,Menlo,Consolas,monospace" font-size="9.5">08-16</text><line x1="703.2" y1="198.0" x2="703.2" y2="201.0" stroke="#CBD4D9" stroke-width="1"/><text x="703.2" y="210.0" fill="#667078" text-anchor="end" font-family="ui-monospace,SFMono-Regular,Menlo,Consolas,monospace" font-size="9.5">09-06</text><text x="816.0" y="134.0" fill="#0E6E6B" font-family="ui-monospace,SFMono-Regular,Menlo,Consolas,monospace" font-size="10">1.61050</text><text x="816.0" y="164.6" fill="#1E7A4C" font-family="ui-monospace,SFMono-Regular,Menlo,Consolas,monospace" font-size="10">1.60271</text><text x="816.0" y="133.9" fill="#12171A" font-family="ui-monospace,SFMono-Regular,Menlo,Consolas,monospace" font-size="10">1.61051</text><g transform="translate(10.0,242)"><line x1="0" y1="4" x2="16" y2="4" stroke="#0E6E6B" stroke-width="2"/><text x="22" y="8" fill="#667078" font-family="system-ui,-apple-system,Segoe UI,Helvetica,Arial,sans-serif" font-size="10.5">limit (zone edge)</text></g><g transform="translate(135.8,242)"><line x1="0" y1="4" x2="16" y2="4" stroke="#1E7A4C" stroke-width="2" stroke-dasharray="4 3"/><text x="22" y="8" fill="#667078" font-family="system-ui,-apple-system,Segoe UI,Helvetica,Arial,sans-serif" font-size="10.5">stop</text></g><g transform="translate(191.4,242)"><line x1="0" y1="4" x2="16" y2="4" stroke="#667078" stroke-width="1" stroke-dasharray="1 3"/><text x="22" y="8" fill="#667078" font-family="system-ui,-apple-system,Segoe UI,Helvetica,Arial,sans-serif" font-size="10.5">swing the CHoCH took out</text></g><g transform="translate(355.0,242)"><rect x="1" y="0" width="14" height="9" fill="#0E6E6B1F" stroke="#0E6E6B55"/><text x="22" y="8" fill="#667078" font-family="system-ui,-apple-system,Segoe UI,Helvetica,Arial,sans-serif" font-size="10.5">block zone</text></g><g transform="translate(443.0,242)"><rect x="2" y="-1" width="11" height="11" fill="none" stroke="#0E6E6B" stroke-width="1.6" rx="2"/><text x="22" y="8" fill="#667078" font-family="system-ui,-apple-system,Segoe UI,Helvetica,Arial,sans-serif" font-size="10.5">block candle</text></g><g transform="translate(541.8,242)"><rect x="4" y="-2" width="7" height="12" fill="#FFFFFF" stroke="#12171A" stroke-width="1.3"/><text x="22" y="8" fill="#667078" font-family="system-ui,-apple-system,Segoe UI,Helvetica,Arial,sans-serif" font-size="10.5">closed up</text></g><g transform="translate(624.4,242)"><rect x="4" y="-2" width="7" height="12" fill="#12171A" stroke="#12171A" stroke-width="1.3"/><text x="22" y="8" fill="#667078" font-family="system-ui,-apple-system,Segoe UI,Helvetica,Arial,sans-serif" font-size="10.5">closed down</text></g><g transform="translate(717.8,242)"><circle cx="8" cy="4" r="3.6" fill="#12171A"/><text x="22" y="8" fill="#667078" font-family="system-ui,-apple-system,Segoe UI,Helvetica,Arial,sans-serif" font-size="10.5">price now</text></g></svg>