<svg xmlns="http://www.w3.org/2000/svg" viewBox="0 0 880 258" width="880" height="258" role="img" aria-label="NZDCHF long order block: the candles that formed it, and where price is now"><rect width="880" height="258" fill="#FFFFFF"/><text x="10" y="22" fill="#12171A" font-family="system-ui,-apple-system,Segoe UI,Helvetica,Arial,sans-serif" font-size="15" font-weight="700">NZDCHF <tspan fill="#1E7A4C" font-size="12">LONG</tspan> <tspan fill="#667078" font-size="12">daily block</tspan></text><text x="10" y="38" fill="#667078" font-family="ui-monospace,SFMono-Regular,Menlo,Consolas,monospace" font-size="11">limit 0.45968 · stop 0.45702 · 27p = 1R · 2.42R away · waited 64d</text><text x="20" y="42" fill="#667078" font-family="system-ui,-apple-system,Segoe UI,Helvetica,Arial,sans-serif" font-size="10" font-weight="600">HOW IT FORMED · 2026-07-01T21:00:00.000000000Z</text><text x="360" y="42" fill="#667078" font-family="system-ui,-apple-system,Segoe UI,Helvetica,Arial,sans-serif" font-size="10" font-weight="600">WHERE PRICE IS NOW</text><rect x="10.0" y="147.2" width="272.0" height="15.6" fill="#0E6E6B1F"/><line x1="10.0" y1="108.1" x2="282.0" y2="108.1" stroke="#667078" stroke-width="1" stroke-dasharray="1 3"/><line x1="10.0" y1="147.2" x2="282.0" y2="147.2" stroke="#0E6E6B" stroke-width="1.4"/><line x1="20.0" y1="159.4" x2="20.0" y2="171.6" stroke="#12171A" stroke-width="1"/><rect x="14.5" y="162.4" width="11.0" height="6.5" fill="#12171A" stroke="#12171A" stroke-width="1"/><line x1="43.6" y1="150.7" x2="43.6" y2="171.0" stroke="#12171A" stroke-width="1"/><rect x="38.1" y="152.4" width="11.0" height="12.6" fill="#FFFFFF" stroke="#12171A" stroke-width="1"/><line x1="67.3" y1="143.9" x2="67.3" y2="157.1" stroke="#12171A" stroke-width="1"/><rect x="61.8" y="150.3" width="11.0" height="3.2" fill="#FFFFFF" stroke="#12171A" stroke-width="1"/><line x1="90.9" y1="147.2" x2="90.9" y2="162.9" stroke="#12171A" stroke-width="1"/><rect x="85.4" y="151.5" width="11.0" height="7.5" fill="#12171A" stroke="#12171A" stroke-width="1"/><line x1="114.5" y1="151.1" x2="114.5" y2="162.4" stroke="#12171A" stroke-width="1"/><rect x="109.0" y="151.3" width="11.0" height="9.2" fill="#FFFFFF" stroke="#12171A" stroke-width="1"/><line x1="138.2" y1="150.3" x2="138.2" y2="162.9" stroke="#12171A" stroke-width="1"/><rect x="132.7" y="150.9" width="11.0" height="1.0" fill="#FFFFFF" stroke="#12171A" stroke-width="1"/><line x1="161.8" y1="148.9" x2="161.8" y2="155.6" stroke="#12171A" stroke-width="1"/><rect x="156.3" y="151.6" width="11.0" height="1.0" fill="#FFFFFF" stroke="#12171A" stroke-width="1"/><line x1="185.5" y1="132.9" x2="185.5" y2="154.7" stroke="#12171A" stroke-width="1"/><rect x="180.0" y="140.1" width="11.0" height="13.0" fill="#FFFFFF" stroke="#12171A" stroke-width="1"/><line x1="209.1" y1="115.5" x2="209.1" y2="143.3" stroke="#12171A" stroke-width="1"/><rect x="203.6" y="116.6" width="11.0" height="23.8" fill="#FFFFFF" stroke="#12171A" stroke-width="1"/><line x1="232.7" y1="105.2" x2="232.7" y2="121.1" stroke="#12171A" stroke-width="1"/><rect x="227.2" y="107.1" width="11.0" height="12.1" fill="#FFFFFF" stroke="#12171A" stroke-width="1"/><line x1="256.4" y1="87.9" x2="256.4" y2="111.3" stroke="#12171A" stroke-width="1"/><rect x="250.9" y="90.0" width="11.0" height="17.2" fill="#FFFFFF" stroke="#12171A" stroke-width="1"/><line x1="280.0" y1="66.4" x2="280.0" y2="92.0" stroke="#12171A" stroke-width="1"/><rect x="274.5" y="78.9" width="11.0" height="11.8" fill="#FFFFFF" stroke="#12171A" stroke-width="1"/><rect x="82.4" y="144.2" width="17.0" height="21.6" fill="none" stroke="#0E6E6B" stroke-width="1.6" rx="2"/><text x="232.7" y="65" fill="#0E6E6B" text-anchor="middle" font-family="ui-monospace,SFMono-Regular,Menlo,Consolas,monospace" font-size="10" font-weight="700">C</text><line x1="10.0" y1="198.0" x2="282.0" y2="198.0" stroke="#E6EBEE" stroke-width="1"/><line x1="20.0" y1="198.0" x2="20.0" y2="201.0" stroke="#CBD4D9" stroke-width="1"/><text x="20.0" y="210.0" fill="#667078" text-anchor="start" font-family="ui-monospace,SFMono-Regular,Menlo,Consolas,monospace" font-size="9.5">06-28</text><line x1="90.9" y1="198.0" x2="90.9" y2="201.0" stroke="#CBD4D9" stroke-width="1"/><text x="90.9" y="210.0" fill="#667078" text-anchor="middle" font-family="ui-monospace,SFMono-Regular,Menlo,Consolas,monospace" font-size="9.5">07-01</text><line x1="161.8" y1="198.0" x2="161.8" y2="201.0" stroke="#CBD4D9" stroke-width="1"/><text x="161.8" y="210.0" fill="#667078" text-anchor="middle" font-family="ui-monospace,SFMono-Regular,Menlo,Consolas,monospace" font-size="9.5">07-06</text><line x1="232.7" y1="198.0" x2="232.7" y2="201.0" stroke="#CBD4D9" stroke-width="1"/><text x="232.7" y="210.0" fill="#667078" text-anchor="end" font-family="ui-monospace,SFMono-Regular,Menlo,Consolas,monospace" font-size="9.5">07-09</text><text x="286.0" y="150.6" fill="#0E6E6B" font-family="ui-monospace,SFMono-Regular,Menlo,Consolas,monospace" font-size="10">0.45968</text><text x="286.0" y="111.5" fill="#667078" font-family="ui-monospace,SFMono-Regular,Menlo,Consolas,monospace" font-size="10">0.46575</text><rect x="354.0" y="159.6" width="458.0" height="10.9" fill="#0E6E6B1F"/><line x1="360.0" y1="100.6" x2="360.0" y2="112.9" stroke="#12171A" stroke-width="1"/><rect x="357.6" y="101.6" width="4.7" height="3.4" fill="#12171A" stroke="#12171A" stroke-width="1"/><line x1="367.6" y1="95.6" x2="367.6" y2="108.8" stroke="#12171A" stroke-width="1"/><rect x="365.3" y="98.7" width="4.7" height="8.3" fill="#FFFFFF" stroke="#12171A" stroke-width="1"/><line x1="375.3" y1="86.4" x2="375.3" y2="102.0" stroke="#12171A" stroke-width="1"/><rect x="372.9" y="96.4" width="4.7" height="4.1" fill="#FFFFFF" stroke="#12171A" stroke-width="1"/><line x1="382.9" y1="94.6" x2="382.9" y2="103.1" stroke="#12171A" stroke-width="1"/><rect x="380.5" y="96.8" width="4.7" height="1.0" fill="#FFFFFF" stroke="#12171A" stroke-width="1"/><line x1="390.5" y1="94.5" x2="390.5" y2="108.2" stroke="#12171A" stroke-width="1"/><rect x="388.1" y="96.2" width="4.7" height="10.0" fill="#12171A" stroke="#12171A" stroke-width="1"/><line x1="398.1" y1="95.4" x2="398.1" y2="107.6" stroke="#12171A" stroke-width="1"/><rect x="395.8" y="96.0" width="4.7" height="10.9" fill="#FFFFFF" stroke="#12171A" stroke-width="1"/><line x1="405.8" y1="93.1" x2="405.8" y2="104.9" stroke="#12171A" stroke-width="1"/><rect x="403.4" y="96.9" width="4.7" height="2.3" fill="#12171A" stroke="#12171A" stroke-width="1"/><line x1="413.4" y1="93.9" x2="413.4" y2="103.0" stroke="#12171A" stroke-width="1"/><rect x="411.0" y="94.5" width="4.7" height="5.1" fill="#FFFFFF" stroke="#12171A" stroke-width="1"/><line x1="421.0" y1="92.5" x2="421.0" y2="107.9" stroke="#12171A" stroke-width="1"/><rect x="418.7" y="94.5" width="4.7" height="11.3" fill="#12171A" stroke="#12171A" stroke-width="1"/><line x1="428.6" y1="89.3" x2="428.6" y2="107.3" stroke="#12171A" stroke-width="1"/><rect x="426.3" y="97.9" width="4.7" height="7.9" fill="#FFFFFF" stroke="#12171A" stroke-width="1"/><line x1="436.3" y1="84.0" x2="436.3" y2="100.7" stroke="#12171A" stroke-width="1"/><rect x="433.9" y="89.1" width="4.7" height="8.8" fill="#FFFFFF" stroke="#12171A" stroke-width="1"/><line x1="443.9" y1="81.5" x2="443.9" y2="94.4" stroke="#12171A" stroke-width="1"/><rect x="441.5" y="86.0" width="4.7" height="1.0" fill="#12171A" stroke="#12171A" stroke-width="1"/><line x1="451.5" y1="80.6" x2="451.5" y2="90.1" stroke="#12171A" stroke-width="1"/><rect x="449.2" y="81.9" width="4.7" height="6.7" fill="#FFFFFF" stroke="#12171A" stroke-width="1"/><line x1="459.2" y1="80.4" x2="459.2" y2="94.2" stroke="#12171A" stroke-width="1"/><rect x="456.8" y="82.5" width="4.7" height="6.9" fill="#12171A" stroke="#12171A" stroke-width="1"/><line x1="466.8" y1="79.6" x2="466.8" y2="93.6" stroke="#12171A" stroke-width="1"/><rect x="464.4" y="82.2" width="4.7" height="7.0" fill="#FFFFFF" stroke="#12171A" stroke-width="1"/><line x1="474.4" y1="80.4" x2="474.4" y2="89.0" stroke="#12171A" stroke-width="1"/><rect x="472.0" y="80.7" width="4.7" height="3.6" fill="#12171A" stroke="#12171A" stroke-width="1"/><line x1="482.0" y1="82.2" x2="482.0" y2="89.5" stroke="#12171A" stroke-width="1"/><rect x="479.7" y="82.4" width="4.7" height="1.0" fill="#12171A" stroke="#12171A" stroke-width="1"/><line x1="489.7" y1="78.6" x2="489.7" y2="85.7" stroke="#12171A" stroke-width="1"/><rect x="487.3" y="81.9" width="4.7" height="1.7" fill="#FFFFFF" stroke="#12171A" stroke-width="1"/><line x1="497.3" y1="80.0" x2="497.3" y2="87.3" stroke="#12171A" stroke-width="1"/><rect x="494.9" y="81.5" width="4.7" height="1.7" fill="#12171A" stroke="#12171A" stroke-width="1"/><line x1="504.9" y1="81.8" x2="504.9" y2="94.5" stroke="#12171A" stroke-width="1"/><rect x="502.6" y="84.3" width="4.7" height="1.0" fill="#FFFFFF" stroke="#12171A" stroke-width="1"/><line x1="512.5" y1="71.3" x2="512.5" y2="86.7" stroke="#12171A" stroke-width="1"/><rect x="510.2" y="71.7" width="4.7" height="15.0" fill="#FFFFFF" stroke="#12171A" stroke-width="1"/><line x1="520.2" y1="66.4" x2="520.2" y2="76.4" stroke="#12171A" stroke-width="1"/><rect x="517.8" y="74.4" width="4.7" height="1.0" fill="#FFFFFF" stroke="#12171A" stroke-width="1"/><line x1="527.8" y1="72.4" x2="527.8" y2="83.9" stroke="#12171A" stroke-width="1"/><rect x="525.4" y="76.1" width="4.7" height="3.8" fill="#12171A" stroke="#12171A" stroke-width="1"/><line x1="535.4" y1="78.8" x2="535.4" y2="99.8" stroke="#12171A" stroke-width="1"/><rect x="533.1" y="79.0" width="4.7" height="19.6" fill="#12171A" stroke="#12171A" stroke-width="1"/><line x1="543.1" y1="83.9" x2="543.1" y2="100.9" stroke="#12171A" stroke-width="1"/><rect x="540.7" y="86.9" width="4.7" height="12.8" fill="#FFFFFF" stroke="#12171A" stroke-width="1"/><line x1="550.7" y1="70.6" x2="550.7" y2="88.6" stroke="#12171A" stroke-width="1"/><rect x="548.3" y="71.7" width="4.7" height="16.8" fill="#FFFFFF" stroke="#12171A" stroke-width="1"/><line x1="558.3" y1="71.1" x2="558.3" y2="77.7" stroke="#12171A" stroke-width="1"/><rect x="555.9" y="72.8" width="4.7" height="3.3" fill="#12171A" stroke="#12171A" stroke-width="1"/><line x1="565.9" y1="70.8" x2="565.9" y2="78.5" stroke="#12171A" stroke-width="1"/><rect x="563.6" y="72.2" width="4.7" height="6.3" fill="#FFFFFF" stroke="#12171A" stroke-width="1"/><line x1="573.6" y1="71.0" x2="573.6" y2="77.9" stroke="#12171A" stroke-width="1"/><rect x="571.2" y="72.2" width="4.7" height="2.0" fill="#12171A" stroke="#12171A" stroke-width="1"/><line x1="581.2" y1="69.3" x2="581.2" y2="77.4" stroke="#12171A" stroke-width="1"/><rect x="578.8" y="72.6" width="4.7" height="1.9" fill="#12171A" stroke="#12171A" stroke-width="1"/><line x1="588.8" y1="67.6" x2="588.8" y2="77.8" stroke="#12171A" stroke-width="1"/><rect x="586.4" y="74.0" width="4.7" height="1.0" fill="#FFFFFF" stroke="#12171A" stroke-width="1"/><line x1="596.4" y1="70.6" x2="596.4" y2="79.7" stroke="#12171A" stroke-width="1"/><rect x="594.1" y="73.2" width="4.7" height="2.5" fill="#12171A" stroke="#12171A" stroke-width="1"/><line x1="604.1" y1="70.3" x2="604.1" y2="80.7" stroke="#12171A" stroke-width="1"/><rect x="601.7" y="76.1" width="4.7" height="1.0" fill="#FFFFFF" stroke="#12171A" stroke-width="1"/><line x1="611.7" y1="70.3" x2="611.7" y2="99.3" stroke="#12171A" stroke-width="1"/><rect x="609.3" y="74.7" width="4.7" height="13.3" fill="#12171A" stroke="#12171A" stroke-width="1"/><line x1="619.3" y1="83.9" x2="619.3" y2="97.4" stroke="#12171A" stroke-width="1"/><rect x="617.0" y="87.8" width="4.7" height="2.6" fill="#12171A" stroke="#12171A" stroke-width="1"/><line x1="626.9" y1="80.1" x2="626.9" y2="95.2" stroke="#12171A" stroke-width="1"/><rect x="624.6" y="84.1" width="4.7" height="6.6" fill="#FFFFFF" stroke="#12171A" stroke-width="1"/><line x1="634.6" y1="83.2" x2="634.6" y2="89.2" stroke="#12171A" stroke-width="1"/><rect x="632.2" y="84.5" width="4.7" height="1.9" fill="#12171A" stroke="#12171A" stroke-width="1"/><line x1="642.2" y1="84.2" x2="642.2" y2="97.9" stroke="#12171A" stroke-width="1"/><rect x="639.8" y="88.5" width="4.7" height="7.0" fill="#12171A" stroke="#12171A" stroke-width="1"/><line x1="649.8" y1="93.4" x2="649.8" y2="103.5" stroke="#12171A" stroke-width="1"/><rect x="647.5" y="95.7" width="4.7" height="4.0" fill="#12171A" stroke="#12171A" stroke-width="1"/><line x1="657.5" y1="95.2" x2="657.5" y2="108.2" stroke="#12171A" stroke-width="1"/><rect x="655.1" y="102.1" width="4.7" height="5.2" fill="#12171A" stroke="#12171A" stroke-width="1"/><line x1="665.1" y1="90.4" x2="665.1" y2="107.0" stroke="#12171A" stroke-width="1"/><rect x="662.7" y="91.7" width="4.7" height="13.3" fill="#FFFFFF" stroke="#12171A" stroke-width="1"/><line x1="672.7" y1="88.7" x2="672.7" y2="108.6" stroke="#12171A" stroke-width="1"/><rect x="670.3" y="91.4" width="4.7" height="11.1" fill="#12171A" stroke="#12171A" stroke-width="1"/><line x1="680.3" y1="97.7" x2="680.3" y2="110.8" stroke="#12171A" stroke-width="1"/><rect x="678.0" y="102.2" width="4.7" height="4.1" fill="#12171A" stroke="#12171A" stroke-width="1"/><line x1="688.0" y1="103.5" x2="688.0" y2="113.5" stroke="#12171A" stroke-width="1"/><rect x="685.6" y="104.8" width="4.7" height="1.5" fill="#FFFFFF" stroke="#12171A" stroke-width="1"/><line x1="695.6" y1="95.9" x2="695.6" y2="107.1" stroke="#12171A" stroke-width="1"/><rect x="693.2" y="100.7" width="4.7" height="4.0" fill="#FFFFFF" stroke="#12171A" stroke-width="1"/><line x1="703.2" y1="98.9" x2="703.2" y2="112.8" stroke="#12171A" stroke-width="1"/><rect x="700.9" y="100.7" width="4.7" height="9.8" fill="#12171A" stroke="#12171A" stroke-width="1"/><line x1="710.8" y1="105.4" x2="710.8" y2="116.6" stroke="#12171A" stroke-width="1"/><rect x="708.5" y="110.5" width="4.7" height="5.7" fill="#12171A" stroke="#12171A" stroke-width="1"/><line x1="718.5" y1="104.0" x2="718.5" y2="124.6" stroke="#12171A" stroke-width="1"/><rect x="716.1" y="112.5" width="4.7" height="1.0" fill="#FFFFFF" stroke="#12171A" stroke-width="1"/><line x1="726.1" y1="111.1" x2="726.1" y2="125.2" stroke="#12171A" stroke-width="1"/><rect x="723.7" y="111.7" width="4.7" height="9.3" fill="#12171A" stroke="#12171A" stroke-width="1"/><line x1="733.7" y1="111.7" x2="733.7" y2="125.1" stroke="#12171A" stroke-width="1"/><rect x="731.4" y="118.8" width="4.7" height="3.1" fill="#FFFFFF" stroke="#12171A" stroke-width="1"/><line x1="741.4" y1="111.9" x2="741.4" y2="121.0" stroke="#12171A" stroke-width="1"/><rect x="739.0" y="115.9" width="4.7" height="2.6" fill="#FFFFFF" stroke="#12171A" stroke-width="1"/><line x1="749.0" y1="102.2" x2="749.0" y2="119.2" stroke="#12171A" stroke-width="1"/><rect x="746.6" y="106.4" width="4.7" height="10.5" fill="#FFFFFF" stroke="#12171A" stroke-width="1"/><line x1="756.6" y1="102.0" x2="756.6" y2="112.9" stroke="#12171A" stroke-width="1"/><rect x="754.2" y="105.9" width="4.7" height="5.1" fill="#12171A" stroke="#12171A" stroke-width="1"/><line x1="764.2" y1="104.8" x2="764.2" y2="112.6" stroke="#12171A" stroke-width="1"/><rect x="761.9" y="109.5" width="4.7" height="1.0" fill="#FFFFFF" stroke="#12171A" stroke-width="1"/><line x1="771.9" y1="108.9" x2="771.9" y2="136.7" stroke="#12171A" stroke-width="1"/><rect x="769.5" y="109.7" width="4.7" height="22.0" fill="#12171A" stroke="#12171A" stroke-width="1"/><line x1="779.5" y1="129.3" x2="779.5" y2="143.0" stroke="#12171A" stroke-width="1"/><rect x="777.1" y="131.8" width="4.7" height="2.3" fill="#12171A" stroke="#12171A" stroke-width="1"/><line x1="787.1" y1="131.8" x2="787.1" y2="141.8" stroke="#12171A" stroke-width="1"/><rect x="784.8" y="133.7" width="4.7" height="1.1" fill="#12171A" stroke="#12171A" stroke-width="1"/><line x1="794.7" y1="122.8" x2="794.7" y2="135.6" stroke="#12171A" stroke-width="1"/><rect x="792.4" y="123.5" width="4.7" height="10.7" fill="#FFFFFF" stroke="#12171A" stroke-width="1"/><line x1="802.4" y1="121.3" x2="802.4" y2="134.6" stroke="#12171A" stroke-width="1"/><rect x="800.0" y="124.3" width="4.7" height="4.4" fill="#12171A" stroke="#12171A" stroke-width="1"/><line x1="810.0" y1="125.9" x2="810.0" y2="133.9" stroke="#12171A" stroke-width="1"/><rect x="807.6" y="129.2" width="4.7" height="1.2" fill="#12171A" stroke="#12171A" stroke-width="1"/><line x1="354.0" y1="159.6" x2="812.0" y2="159.6" stroke="#0E6E6B" stroke-width="1.4"/><line x1="354.0" y1="171.6" x2="812.0" y2="171.6" stroke="#1E7A4C" stroke-width="1.4" stroke-dasharray="4 3"/><circle cx="810.0" cy="130.5" r="3.6" fill="#12171A"/><line x1="354.0" y1="198.0" x2="812.0" y2="198.0" stroke="#E6EBEE" stroke-width="1"/><line x1="360.0" y1="198.0" x2="360.0" y2="201.0" stroke="#CBD4D9" stroke-width="1"/><text x="360.0" y="210.0" fill="#667078" text-anchor="start" font-family="ui-monospace,SFMono-Regular,Menlo,Consolas,monospace" font-size="9.5">07-16</text><line x1="474.4" y1="198.0" x2="474.4" y2="201.0" stroke="#CBD4D9" stroke-width="1"/><text x="474.4" y="210.0" fill="#667078" text-anchor="middle" font-family="ui-monospace,SFMono-Regular,Menlo,Consolas,monospace" font-size="9.5">08-06</text><line x1="588.8" y1="198.0" x2="588.8" y2="201.0" stroke="#CBD4D9" stroke-width="1"/><text x="588.8" y="210.0" fill="#667078" text-anchor="middle" font-family="ui-monospace,SFMono-Regular,Menlo,Consolas,monospace" font-size="9.5">08-27</text><line x1="703.2" y1="198.0" x2="703.2" y2="201.0" stroke="#CBD4D9" stroke-width="1"/><text x="703.2" y="210.0" fill="#667078" text-anchor="end" font-family="ui-monospace,SFMono-Regular,Menlo,Consolas,monospace" font-size="9.5">09-17</text><text x="816.0" y="163.0" fill="#0E6E6B" font-family="ui-monospace,SFMono-Regular,Menlo,Consolas,monospace" font-size="10">0.45968</text><text x="816.0" y="175.0" fill="#1E7A4C" font-family="ui-monospace,SFMono-Regular,Menlo,Consolas,monospace" font-size="10">0.45702</text><text x="816.0" y="133.9" fill="#12171A" font-family="ui-monospace,SFMono-Regular,Menlo,Consolas,monospace" font-size="10">0.46612</text><g transform="translate(10.0,242)"><line x1="0" y1="4" x2="16" y2="4" stroke="#0E6E6B" stroke-width="2"/><text x="22" y="8" fill="#667078" font-family="system-ui,-apple-system,Segoe UI,Helvetica,Arial,sans-serif" font-size="10.5">limit (zone edge)</text></g><g transform="translate(135.8,242)"><line x1="0" y1="4" x2="16" y2="4" stroke="#1E7A4C" stroke-width="2" stroke-dasharray="4 3"/><text x="22" y="8" fill="#667078" font-family="system-ui,-apple-system,Segoe UI,Helvetica,Arial,sans-serif" font-size="10.5">stop</text></g><g transform="translate(191.4,242)"><line x1="0" y1="4" x2="16" y2="4" stroke="#667078" stroke-width="1" stroke-dasharray="1 3"/><text x="22" y="8" fill="#667078" font-family="system-ui,-apple-system,Segoe UI,Helvetica,Arial,sans-serif" font-size="10.5">swing the CHoCH took out</text></g><g transform="translate(355.0,242)"><rect x="1" y="0" width="14" height="9" fill="#0E6E6B1F" stroke="#0E6E6B55"/><text x="22" y="8" fill="#667078" font-family="system-ui,-apple-system,Segoe UI,Helvetica,Arial,sans-serif" font-size="10.5">block zone</text></g><g transform="translate(443.0,242)"><rect x="2" y="-1" width="11" height="11" fill="none" stroke="#0E6E6B" stroke-width="1.6" rx="2"/><text x="22" y="8" fill="#667078" font-family="system-ui,-apple-system,Segoe UI,Helvetica,Arial,sans-serif" font-size="10.5">block candle</text></g><g transform="translate(541.8,242)"><rect x="4" y="-2" width="7" height="12" fill="#FFFFFF" stroke="#12171A" stroke-width="1.3"/><text x="22" y="8" fill="#667078" font-family="system-ui,-apple-system,Segoe UI,Helvetica,Arial,sans-serif" font-size="10.5">closed up</text></g><g transform="translate(624.4,242)"><rect x="4" y="-2" width="7" height="12" fill="#12171A" stroke="#12171A" stroke-width="1.3"/><text x="22" y="8" fill="#667078" font-family="system-ui,-apple-system,Segoe UI,Helvetica,Arial,sans-serif" font-size="10.5">closed down</text></g><g transform="translate(717.8,242)"><circle cx="8" cy="4" r="3.6" fill="#12171A"/><text x="22" y="8" fill="#667078" font-family="system-ui,-apple-system,Segoe UI,Helvetica,Arial,sans-serif" font-size="10.5">price now</text></g></svg>