<svg xmlns="http://www.w3.org/2000/svg" viewBox="0 0 880 258" width="880" height="258" role="img" aria-label="GBPAUD short order block: the candles that formed it, and where price is now"><rect width="880" height="258" fill="#FFFFFF"/><text x="10" y="22" fill="#12171A" font-family="system-ui,-apple-system,Segoe UI,Helvetica,Arial,sans-serif" font-size="15" font-weight="700">GBPAUD <tspan fill="#A83A2E" font-size="12">SHORT</tspan> <tspan fill="#667078" font-size="12">4-hour block</tspan></text><text x="10" y="38" fill="#667078" font-family="ui-monospace,SFMono-Regular,Menlo,Consolas,monospace" font-size="11">limit 1.90190 · stop 1.90524 · 33p = 1R · 0.97R away · waited 1d</text><text x="20" y="42" fill="#667078" font-family="system-ui,-apple-system,Segoe UI,Helvetica,Arial,sans-serif" font-size="10" font-weight="600">HOW IT FORMED · 2026-10-05T01:00:00.000000000Z</text><text x="360" y="42" fill="#667078" font-family="system-ui,-apple-system,Segoe UI,Helvetica,Arial,sans-serif" font-size="10" font-weight="600">WHERE PRICE IS NOW</text><rect x="10.0" y="81.5" width="272.0" height="29.0" fill="#0E6E6B1F"/><line x1="10.0" y1="157.9" x2="282.0" y2="157.9" stroke="#667078" stroke-width="1" stroke-dasharray="1 3"/><line x1="10.0" y1="110.4" x2="282.0" y2="110.4" stroke="#0E6E6B" stroke-width="1.4"/><line x1="20.0" y1="87.4" x2="20.0" y2="157.9" stroke="#12171A" stroke-width="1"/><rect x="14.5" y="88.5" width="11.0" height="51.7" fill="#FFFFFF" stroke="#12171A" stroke-width="1"/><line x1="52.5" y1="79.2" x2="52.5" y2="101.2" stroke="#12171A" stroke-width="1"/><rect x="47.0" y="88.4" width="11.0" height="10.8" fill="#12171A" stroke="#12171A" stroke-width="1"/><line x1="85.0" y1="66.4" x2="85.0" y2="100.3" stroke="#12171A" stroke-width="1"/><rect x="79.5" y="72.1" width="11.0" height="22.2" fill="#12171A" stroke="#12171A" stroke-width="1"/><line x1="117.5" y1="81.5" x2="117.5" y2="110.4" stroke="#12171A" stroke-width="1"/><rect x="112.0" y="89.8" width="11.0" height="4.6" fill="#FFFFFF" stroke="#12171A" stroke-width="1"/><line x1="150.0" y1="87.7" x2="150.0" y2="126.8" stroke="#12171A" stroke-width="1"/><rect x="144.5" y="89.8" width="11.0" height="36.3" fill="#12171A" stroke="#12171A" stroke-width="1"/><line x1="182.5" y1="117.9" x2="182.5" y2="141.3" stroke="#12171A" stroke-width="1"/><rect x="177.0" y="126.2" width="11.0" height="9.8" fill="#12171A" stroke="#12171A" stroke-width="1"/><line x1="215.0" y1="132.7" x2="215.0" y2="171.6" stroke="#12171A" stroke-width="1"/><rect x="209.5" y="136.1" width="11.0" height="18.1" fill="#12171A" stroke="#12171A" stroke-width="1"/><line x1="247.5" y1="152.7" x2="247.5" y2="168.5" stroke="#12171A" stroke-width="1"/><rect x="242.0" y="154.2" width="11.0" height="8.4" fill="#12171A" stroke="#12171A" stroke-width="1"/><line x1="280.0" y1="145.3" x2="280.0" y2="169.9" stroke="#12171A" stroke-width="1"/><rect x="274.5" y="155.6" width="11.0" height="5.3" fill="#FFFFFF" stroke="#12171A" stroke-width="1"/><rect x="109.0" y="78.5" width="17.0" height="35.0" fill="none" stroke="#0E6E6B" stroke-width="1.6" rx="2"/><text x="215.0" y="65" fill="#0E6E6B" text-anchor="middle" font-family="ui-monospace,SFMono-Regular,Menlo,Consolas,monospace" font-size="10" font-weight="700">C</text><line x1="10.0" y1="198.0" x2="282.0" y2="198.0" stroke="#E6EBEE" stroke-width="1"/><line x1="20.0" y1="198.0" x2="20.0" y2="201.0" stroke="#CBD4D9" stroke-width="1"/><text x="20.0" y="210.0" fill="#667078" text-anchor="start" font-family="ui-monospace,SFMono-Regular,Menlo,Consolas,monospace" font-size="9.5">10-02 13h</text><line x1="85.0" y1="198.0" x2="85.0" y2="201.0" stroke="#CBD4D9" stroke-width="1"/><text x="85.0" y="210.0" fill="#667078" text-anchor="middle" font-family="ui-monospace,SFMono-Regular,Menlo,Consolas,monospace" font-size="9.5">10-04 21h</text><line x1="150.0" y1="198.0" x2="150.0" y2="201.0" stroke="#CBD4D9" stroke-width="1"/><text x="150.0" y="210.0" fill="#667078" text-anchor="middle" font-family="ui-monospace,SFMono-Regular,Menlo,Consolas,monospace" font-size="9.5">10-05 05h</text><line x1="215.0" y1="198.0" x2="215.0" y2="201.0" stroke="#CBD4D9" stroke-width="1"/><text x="215.0" y="210.0" fill="#667078" text-anchor="middle" font-family="ui-monospace,SFMono-Regular,Menlo,Consolas,monospace" font-size="9.5">10-05 13h</text><line x1="280.0" y1="198.0" x2="280.0" y2="201.0" stroke="#CBD4D9" stroke-width="1"/><text x="280.0" y="210.0" fill="#667078" text-anchor="end" font-family="ui-monospace,SFMono-Regular,Menlo,Consolas,monospace" font-size="9.5">10-05 21h</text><text x="286.0" y="113.8" fill="#0E6E6B" font-family="ui-monospace,SFMono-Regular,Menlo,Consolas,monospace" font-size="10">1.90190</text><text x="286.0" y="161.3" fill="#667078" font-family="ui-monospace,SFMono-Regular,Menlo,Consolas,monospace" font-size="10">1.89692</text><rect x="354.0" y="85.1" width="458.0" height="8.5" fill="#0E6E6B1F"/><line x1="360.0" y1="154.0" x2="360.0" y2="161.3" stroke="#12171A" stroke-width="1"/><rect x="357.6" y="157.5" width="4.7" height="1.9" fill="#FFFFFF" stroke="#12171A" stroke-width="1"/><line x1="367.6" y1="155.4" x2="367.6" y2="167.0" stroke="#12171A" stroke-width="1"/><rect x="365.3" y="157.5" width="4.7" height="8.4" fill="#12171A" stroke="#12171A" stroke-width="1"/><line x1="375.3" y1="165.0" x2="375.3" y2="170.5" stroke="#12171A" stroke-width="1"/><rect x="372.9" y="165.9" width="4.7" height="1.5" fill="#12171A" stroke="#12171A" stroke-width="1"/><line x1="382.9" y1="164.4" x2="382.9" y2="170.7" stroke="#12171A" stroke-width="1"/><rect x="380.5" y="167.8" width="4.7" height="2.5" fill="#12171A" stroke="#12171A" stroke-width="1"/><line x1="390.5" y1="165.1" x2="390.5" y2="171.6" stroke="#12171A" stroke-width="1"/><rect x="388.1" y="169.5" width="4.7" height="1.0" fill="#FFFFFF" stroke="#12171A" stroke-width="1"/><line x1="398.1" y1="156.6" x2="398.1" y2="171.4" stroke="#12171A" stroke-width="1"/><rect x="395.8" y="164.0" width="4.7" height="5.5" fill="#FFFFFF" stroke="#12171A" stroke-width="1"/><line x1="405.8" y1="155.1" x2="405.8" y2="168.2" stroke="#12171A" stroke-width="1"/><rect x="403.4" y="157.8" width="4.7" height="6.1" fill="#FFFFFF" stroke="#12171A" stroke-width="1"/><line x1="413.4" y1="143.0" x2="413.4" y2="158.1" stroke="#12171A" stroke-width="1"/><rect x="411.0" y="147.0" width="4.7" height="10.8" fill="#FFFFFF" stroke="#12171A" stroke-width="1"/><line x1="421.0" y1="145.7" x2="421.0" y2="153.4" stroke="#12171A" stroke-width="1"/><rect x="418.7" y="146.9" width="4.7" height="5.2" fill="#12171A" stroke="#12171A" stroke-width="1"/><line x1="428.6" y1="147.3" x2="428.6" y2="155.1" stroke="#12171A" stroke-width="1"/><rect x="426.3" y="152.3" width="4.7" height="1.8" fill="#FFFFFF" stroke="#12171A" stroke-width="1"/><line x1="436.3" y1="142.0" x2="436.3" y2="155.9" stroke="#12171A" stroke-width="1"/><rect x="433.9" y="148.5" width="4.7" height="3.8" fill="#FFFFFF" stroke="#12171A" stroke-width="1"/><line x1="443.9" y1="145.8" x2="443.9" y2="151.4" stroke="#12171A" stroke-width="1"/><rect x="441.5" y="146.4" width="4.7" height="2.1" fill="#FFFFFF" stroke="#12171A" stroke-width="1"/><line x1="451.5" y1="143.8" x2="451.5" y2="153.3" stroke="#12171A" stroke-width="1"/><rect x="449.2" y="146.5" width="4.7" height="2.3" fill="#12171A" stroke="#12171A" stroke-width="1"/><line x1="459.2" y1="139.2" x2="459.2" y2="152.2" stroke="#12171A" stroke-width="1"/><rect x="456.8" y="146.1" width="4.7" height="2.7" fill="#FFFFFF" stroke="#12171A" stroke-width="1"/><line x1="466.8" y1="138.3" x2="466.8" y2="146.9" stroke="#12171A" stroke-width="1"/><rect x="464.4" y="140.2" width="4.7" height="5.8" fill="#FFFFFF" stroke="#12171A" stroke-width="1"/><line x1="474.4" y1="137.3" x2="474.4" y2="144.4" stroke="#12171A" stroke-width="1"/><rect x="472.0" y="140.6" width="4.7" height="2.4" fill="#FFFFFF" stroke="#12171A" stroke-width="1"/><line x1="482.0" y1="139.5" x2="482.0" y2="145.8" stroke="#12171A" stroke-width="1"/><rect x="479.7" y="140.6" width="4.7" height="3.6" fill="#12171A" stroke="#12171A" stroke-width="1"/><line x1="489.7" y1="142.8" x2="489.7" y2="149.5" stroke="#12171A" stroke-width="1"/><rect x="487.3" y="144.1" width="4.7" height="3.2" fill="#12171A" stroke="#12171A" stroke-width="1"/><line x1="497.3" y1="135.0" x2="497.3" y2="147.9" stroke="#12171A" stroke-width="1"/><rect x="494.9" y="135.1" width="4.7" height="12.3" fill="#FFFFFF" stroke="#12171A" stroke-width="1"/><line x1="504.9" y1="131.6" x2="504.9" y2="147.1" stroke="#12171A" stroke-width="1"/><rect x="502.6" y="135.1" width="4.7" height="9.4" fill="#12171A" stroke="#12171A" stroke-width="1"/><line x1="512.5" y1="138.4" x2="512.5" y2="144.6" stroke="#12171A" stroke-width="1"/><rect x="510.2" y="139.0" width="4.7" height="5.4" fill="#FFFFFF" stroke="#12171A" stroke-width="1"/><line x1="520.2" y1="132.9" x2="520.2" y2="145.4" stroke="#12171A" stroke-width="1"/><rect x="517.8" y="134.1" width="4.7" height="3.6" fill="#12171A" stroke="#12171A" stroke-width="1"/><line x1="527.8" y1="134.0" x2="527.8" y2="142.0" stroke="#12171A" stroke-width="1"/><rect x="525.4" y="137.6" width="4.7" height="4.4" fill="#12171A" stroke="#12171A" stroke-width="1"/><line x1="535.4" y1="123.1" x2="535.4" y2="142.3" stroke="#12171A" stroke-width="1"/><rect x="533.1" y="123.2" width="4.7" height="18.8" fill="#FFFFFF" stroke="#12171A" stroke-width="1"/><line x1="543.1" y1="121.8" x2="543.1" y2="135.2" stroke="#12171A" stroke-width="1"/><rect x="540.7" y="123.0" width="4.7" height="11.6" fill="#12171A" stroke="#12171A" stroke-width="1"/><line x1="550.7" y1="128.9" x2="550.7" y2="137.0" stroke="#12171A" stroke-width="1"/><rect x="548.3" y="131.5" width="4.7" height="3.1" fill="#FFFFFF" stroke="#12171A" stroke-width="1"/><line x1="558.3" y1="129.1" x2="558.3" y2="135.5" stroke="#12171A" stroke-width="1"/><rect x="555.9" y="130.1" width="4.7" height="1.5" fill="#FFFFFF" stroke="#12171A" stroke-width="1"/><line x1="565.9" y1="127.6" x2="565.9" y2="133.4" stroke="#12171A" stroke-width="1"/><rect x="563.6" y="127.9" width="4.7" height="2.7" fill="#FFFFFF" stroke="#12171A" stroke-width="1"/><line x1="573.6" y1="125.8" x2="573.6" y2="143.7" stroke="#12171A" stroke-width="1"/><rect x="571.2" y="127.9" width="4.7" height="8.6" fill="#12171A" stroke="#12171A" stroke-width="1"/><line x1="581.2" y1="110.3" x2="581.2" y2="141.3" stroke="#12171A" stroke-width="1"/><rect x="578.8" y="117.4" width="4.7" height="19.1" fill="#FFFFFF" stroke="#12171A" stroke-width="1"/><line x1="588.8" y1="112.9" x2="588.8" y2="125.0" stroke="#12171A" stroke-width="1"/><rect x="586.4" y="117.3" width="4.7" height="4.1" fill="#12171A" stroke="#12171A" stroke-width="1"/><line x1="596.4" y1="110.5" x2="596.4" y2="124.4" stroke="#12171A" stroke-width="1"/><rect x="594.1" y="112.9" width="4.7" height="8.5" fill="#FFFFFF" stroke="#12171A" stroke-width="1"/><line x1="604.1" y1="111.6" x2="604.1" y2="118.6" stroke="#12171A" stroke-width="1"/><rect x="601.7" y="112.8" width="4.7" height="3.3" fill="#12171A" stroke="#12171A" stroke-width="1"/><line x1="611.7" y1="112.7" x2="611.7" y2="120.4" stroke="#12171A" stroke-width="1"/><rect x="609.3" y="114.2" width="4.7" height="5.0" fill="#12171A" stroke="#12171A" stroke-width="1"/><line x1="619.3" y1="95.6" x2="619.3" y2="122.8" stroke="#12171A" stroke-width="1"/><rect x="617.0" y="106.1" width="4.7" height="13.0" fill="#FFFFFF" stroke="#12171A" stroke-width="1"/><line x1="626.9" y1="89.3" x2="626.9" y2="107.0" stroke="#12171A" stroke-width="1"/><rect x="624.6" y="89.7" width="4.7" height="16.4" fill="#FFFFFF" stroke="#12171A" stroke-width="1"/><line x1="634.6" y1="77.3" x2="634.6" y2="90.4" stroke="#12171A" stroke-width="1"/><rect x="632.2" y="82.1" width="4.7" height="7.6" fill="#FFFFFF" stroke="#12171A" stroke-width="1"/><line x1="642.2" y1="70.0" x2="642.2" y2="83.4" stroke="#12171A" stroke-width="1"/><rect x="639.8" y="75.8" width="4.7" height="6.3" fill="#FFFFFF" stroke="#12171A" stroke-width="1"/><line x1="649.8" y1="69.8" x2="649.8" y2="76.5" stroke="#12171A" stroke-width="1"/><rect x="647.5" y="71.0" width="4.7" height="4.9" fill="#FFFFFF" stroke="#12171A" stroke-width="1"/><line x1="657.5" y1="66.4" x2="657.5" y2="73.6" stroke="#12171A" stroke-width="1"/><rect x="655.1" y="68.8" width="4.7" height="3.7" fill="#FFFFFF" stroke="#12171A" stroke-width="1"/><line x1="665.1" y1="68.0" x2="665.1" y2="81.5" stroke="#12171A" stroke-width="1"/><rect x="662.7" y="68.9" width="4.7" height="8.3" fill="#12171A" stroke="#12171A" stroke-width="1"/><line x1="672.7" y1="75.0" x2="672.7" y2="86.8" stroke="#12171A" stroke-width="1"/><rect x="670.3" y="77.2" width="4.7" height="9.5" fill="#12171A" stroke="#12171A" stroke-width="1"/><line x1="680.3" y1="84.6" x2="680.3" y2="92.2" stroke="#12171A" stroke-width="1"/><rect x="678.0" y="86.7" width="4.7" height="1.6" fill="#12171A" stroke="#12171A" stroke-width="1"/><line x1="688.0" y1="69.6" x2="688.0" y2="91.9" stroke="#12171A" stroke-width="1"/><rect x="685.6" y="76.9" width="4.7" height="11.6" fill="#FFFFFF" stroke="#12171A" stroke-width="1"/><line x1="695.6" y1="76.4" x2="695.6" y2="89.2" stroke="#12171A" stroke-width="1"/><rect x="693.2" y="77.0" width="4.7" height="11.4" fill="#12171A" stroke="#12171A" stroke-width="1"/><line x1="703.2" y1="79.9" x2="703.2" y2="88.9" stroke="#12171A" stroke-width="1"/><rect x="700.9" y="82.7" width="4.7" height="4.4" fill="#FFFFFF" stroke="#12171A" stroke-width="1"/><line x1="710.8" y1="79.2" x2="710.8" y2="87.6" stroke="#12171A" stroke-width="1"/><rect x="708.5" y="82.7" width="4.7" height="1.5" fill="#12171A" stroke="#12171A" stroke-width="1"/><line x1="718.5" y1="83.9" x2="718.5" y2="93.4" stroke="#12171A" stroke-width="1"/><rect x="716.1" y="84.1" width="4.7" height="7.5" fill="#12171A" stroke="#12171A" stroke-width="1"/><line x1="726.1" y1="85.2" x2="726.1" y2="102.6" stroke="#12171A" stroke-width="1"/><rect x="723.7" y="91.6" width="4.7" height="10.7" fill="#12171A" stroke="#12171A" stroke-width="1"/><line x1="733.7" y1="86.8" x2="733.7" y2="107.5" stroke="#12171A" stroke-width="1"/><rect x="731.4" y="87.1" width="4.7" height="15.2" fill="#FFFFFF" stroke="#12171A" stroke-width="1"/><line x1="741.4" y1="84.4" x2="741.4" y2="90.9" stroke="#12171A" stroke-width="1"/><rect x="739.0" y="87.1" width="4.7" height="3.2" fill="#12171A" stroke="#12171A" stroke-width="1"/><line x1="749.0" y1="80.7" x2="749.0" y2="90.6" stroke="#12171A" stroke-width="1"/><rect x="746.6" y="82.3" width="4.7" height="6.5" fill="#12171A" stroke="#12171A" stroke-width="1"/><line x1="756.6" y1="85.1" x2="756.6" y2="93.6" stroke="#12171A" stroke-width="1"/><rect x="754.2" y="87.5" width="4.7" height="1.3" fill="#FFFFFF" stroke="#12171A" stroke-width="1"/><line x1="764.2" y1="86.9" x2="764.2" y2="98.4" stroke="#12171A" stroke-width="1"/><rect x="761.9" y="87.5" width="4.7" height="10.6" fill="#12171A" stroke="#12171A" stroke-width="1"/><line x1="771.9" y1="95.7" x2="771.9" y2="102.6" stroke="#12171A" stroke-width="1"/><rect x="769.5" y="98.2" width="4.7" height="2.9" fill="#12171A" stroke="#12171A" stroke-width="1"/><line x1="779.5" y1="100.1" x2="779.5" y2="111.5" stroke="#12171A" stroke-width="1"/><rect x="777.1" y="101.1" width="4.7" height="5.3" fill="#12171A" stroke="#12171A" stroke-width="1"/><line x1="787.1" y1="106.0" x2="787.1" y2="110.6" stroke="#12171A" stroke-width="1"/><rect x="784.8" y="106.4" width="4.7" height="2.5" fill="#12171A" stroke="#12171A" stroke-width="1"/><line x1="794.7" y1="103.8" x2="794.7" y2="111.0" stroke="#12171A" stroke-width="1"/><rect x="792.4" y="106.8" width="4.7" height="1.6" fill="#FFFFFF" stroke="#12171A" stroke-width="1"/><line x1="802.4" y1="104.4" x2="802.4" y2="113.5" stroke="#12171A" stroke-width="1"/><rect x="800.0" y="106.8" width="4.7" height="2.7" fill="#12171A" stroke="#12171A" stroke-width="1"/><line x1="810.0" y1="102.6" x2="810.0" y2="111.2" stroke="#12171A" stroke-width="1"/><rect x="807.6" y="102.6" width="4.7" height="6.9" fill="#FFFFFF" stroke="#12171A" stroke-width="1"/><line x1="354.0" y1="93.6" x2="812.0" y2="93.6" stroke="#0E6E6B" stroke-width="1.4"/><line x1="354.0" y1="84.2" x2="812.0" y2="84.2" stroke="#A83A2E" stroke-width="1.4" stroke-dasharray="4 3"/><circle cx="810.0" cy="102.6" r="3.6" fill="#12171A"/><line x1="354.0" y1="198.0" x2="812.0" y2="198.0" stroke="#E6EBEE" stroke-width="1"/><line x1="360.0" y1="198.0" x2="360.0" y2="201.0" stroke="#CBD4D9" stroke-width="1"/><text x="360.0" y="210.0" fill="#667078" text-anchor="start" font-family="ui-monospace,SFMono-Regular,Menlo,Consolas,monospace" font-size="9.5">09-22 09h</text><line x1="474.4" y1="198.0" x2="474.4" y2="201.0" stroke="#CBD4D9" stroke-width="1"/><text x="474.4" y="210.0" fill="#667078" text-anchor="middle" font-family="ui-monospace,SFMono-Regular,Menlo,Consolas,monospace" font-size="9.5">09-24 21h</text><line x1="588.8" y1="198.0" x2="588.8" y2="201.0" stroke="#CBD4D9" stroke-width="1"/><text x="588.8" y="210.0" fill="#667078" text-anchor="middle" font-family="ui-monospace,SFMono-Regular,Menlo,Consolas,monospace" font-size="9.5">09-29 09h</text><line x1="703.2" y1="198.0" x2="703.2" y2="201.0" stroke="#CBD4D9" stroke-width="1"/><text x="703.2" y="210.0" fill="#667078" text-anchor="end" font-family="ui-monospace,SFMono-Regular,Menlo,Consolas,monospace" font-size="9.5">10-01 21h</text><text x="816.0" y="97.0" fill="#0E6E6B" font-family="ui-monospace,SFMono-Regular,Menlo,Consolas,monospace" font-size="10">1.90190</text><text x="816.0" y="87.6" fill="#A83A2E" font-family="ui-monospace,SFMono-Regular,Menlo,Consolas,monospace" font-size="10">1.90524</text><text x="816.0" y="106.0" fill="#12171A" font-family="ui-monospace,SFMono-Regular,Menlo,Consolas,monospace" font-size="10">1.89867</text><g transform="translate(10.0,242)"><line x1="0" y1="4" x2="16" y2="4" stroke="#0E6E6B" stroke-width="2"/><text x="22" y="8" fill="#667078" font-family="system-ui,-apple-system,Segoe UI,Helvetica,Arial,sans-serif" font-size="10.5">limit (zone edge)</text></g><g transform="translate(135.8,242)"><line x1="0" y1="4" x2="16" y2="4" stroke="#A83A2E" stroke-width="2" stroke-dasharray="4 3"/><text x="22" y="8" fill="#667078" font-family="system-ui,-apple-system,Segoe UI,Helvetica,Arial,sans-serif" font-size="10.5">stop</text></g><g transform="translate(191.4,242)"><line x1="0" y1="4" x2="16" y2="4" stroke="#667078" stroke-width="1" stroke-dasharray="1 3"/><text x="22" y="8" fill="#667078" font-family="system-ui,-apple-system,Segoe UI,Helvetica,Arial,sans-serif" font-size="10.5">swing the CHoCH took out</text></g><g transform="translate(355.0,242)"><rect x="1" y="0" width="14" height="9" fill="#0E6E6B1F" stroke="#0E6E6B55"/><text x="22" y="8" fill="#667078" font-family="system-ui,-apple-system,Segoe UI,Helvetica,Arial,sans-serif" font-size="10.5">block zone</text></g><g transform="translate(443.0,242)"><rect x="2" y="-1" width="11" height="11" fill="none" stroke="#0E6E6B" stroke-width="1.6" rx="2"/><text x="22" y="8" fill="#667078" font-family="system-ui,-apple-system,Segoe UI,Helvetica,Arial,sans-serif" font-size="10.5">block candle</text></g><g transform="translate(541.8,242)"><rect x="4" y="-2" width="7" height="12" fill="#FFFFFF" stroke="#12171A" stroke-width="1.3"/><text x="22" y="8" fill="#667078" font-family="system-ui,-apple-system,Segoe UI,Helvetica,Arial,sans-serif" font-size="10.5">closed up</text></g><g transform="translate(624.4,242)"><rect x="4" y="-2" width="7" height="12" fill="#12171A" stroke="#12171A" stroke-width="1.3"/><text x="22" y="8" fill="#667078" font-family="system-ui,-apple-system,Segoe UI,Helvetica,Arial,sans-serif" font-size="10.5">closed down</text></g><g transform="translate(717.8,242)"><circle cx="8" cy="4" r="3.6" fill="#12171A"/><text x="22" y="8" fill="#667078" font-family="system-ui,-apple-system,Segoe UI,Helvetica,Arial,sans-serif" font-size="10.5">price now</text></g></svg>