<svg xmlns="http://www.w3.org/2000/svg" viewBox="0 0 880 258" width="880" height="258" role="img" aria-label="AUDJPY long order block: the candles that formed it, and where price is now"><rect width="880" height="258" fill="#FFFFFF"/><text x="10" y="22" fill="#12171A" font-family="system-ui,-apple-system,Segoe UI,Helvetica,Arial,sans-serif" font-size="15" font-weight="700">AUDJPY <tspan fill="#1E7A4C" font-size="12">LONG</tspan> <tspan fill="#667078" font-size="12">4-hour block</tspan></text><text x="10" y="38" fill="#667078" font-family="ui-monospace,SFMono-Regular,Menlo,Consolas,monospace" font-size="11">limit 109.748 · stop 109.460 · 29p = 1R · 1.07R away · waited 2d</text><text x="20" y="42" fill="#667078" font-family="system-ui,-apple-system,Segoe UI,Helvetica,Arial,sans-serif" font-size="10" font-weight="600">HOW IT FORMED · 2026-10-05T01:00:00.000000000Z</text><text x="360" y="42" fill="#667078" font-family="system-ui,-apple-system,Segoe UI,Helvetica,Arial,sans-serif" font-size="10" font-weight="600">WHERE PRICE IS NOW</text><rect x="10.0" y="126.7" width="272.0" height="35.6" fill="#0E6E6B1F"/><line x1="10.0" y1="77.0" x2="282.0" y2="77.0" stroke="#667078" stroke-width="1" stroke-dasharray="1 3"/><line x1="10.0" y1="126.7" x2="282.0" y2="126.7" stroke="#0E6E6B" stroke-width="1.4"/><line x1="20.0" y1="106.6" x2="20.0" y2="171.6" stroke="#12171A" stroke-width="1"/><rect x="14.5" y="135.4" width="11.0" height="22.4" fill="#FFFFFF" stroke="#12171A" stroke-width="1"/><line x1="57.1" y1="111.8" x2="57.1" y2="141.1" stroke="#12171A" stroke-width="1"/><rect x="51.6" y="115.1" width="11.0" height="20.7" fill="#FFFFFF" stroke="#12171A" stroke-width="1"/><line x1="94.3" y1="105.5" x2="94.3" y2="150.0" stroke="#12171A" stroke-width="1"/><rect x="88.8" y="117.0" width="11.0" height="16.7" fill="#12171A" stroke="#12171A" stroke-width="1"/><line x1="131.4" y1="126.7" x2="131.4" y2="162.3" stroke="#12171A" stroke-width="1"/><rect x="125.9" y="133.8" width="11.0" height="2.3" fill="#12171A" stroke="#12171A" stroke-width="1"/><line x1="168.6" y1="103.6" x2="168.6" y2="170.0" stroke="#12171A" stroke-width="1"/><rect x="163.1" y="104.3" width="11.0" height="31.1" fill="#FFFFFF" stroke="#12171A" stroke-width="1"/><line x1="205.7" y1="69.1" x2="205.7" y2="109.1" stroke="#12171A" stroke-width="1"/><rect x="200.2" y="72.7" width="11.0" height="31.8" fill="#FFFFFF" stroke="#12171A" stroke-width="1"/><line x1="242.9" y1="66.4" x2="242.9" y2="105.1" stroke="#12171A" stroke-width="1"/><rect x="237.4" y="73.2" width="11.0" height="4.9" fill="#12171A" stroke="#12171A" stroke-width="1"/><line x1="280.0" y1="67.8" x2="280.0" y2="80.8" stroke="#12171A" stroke-width="1"/><rect x="274.5" y="76.5" width="11.0" height="1.6" fill="#FFFFFF" stroke="#12171A" stroke-width="1"/><rect x="122.9" y="123.7" width="17.0" height="41.6" fill="none" stroke="#0E6E6B" stroke-width="1.6" rx="2"/><text x="205.7" y="65" fill="#0E6E6B" text-anchor="middle" font-family="ui-monospace,SFMono-Regular,Menlo,Consolas,monospace" font-size="10" font-weight="700">C</text><line x1="10.0" y1="198.0" x2="282.0" y2="198.0" stroke="#E6EBEE" stroke-width="1"/><line x1="20.0" y1="198.0" x2="20.0" y2="201.0" stroke="#CBD4D9" stroke-width="1"/><text x="20.0" y="210.0" fill="#667078" text-anchor="start" font-family="ui-monospace,SFMono-Regular,Menlo,Consolas,monospace" font-size="9.5">10-02 13h</text><line x1="94.3" y1="198.0" x2="94.3" y2="201.0" stroke="#CBD4D9" stroke-width="1"/><text x="94.3" y="210.0" fill="#667078" text-anchor="middle" font-family="ui-monospace,SFMono-Regular,Menlo,Consolas,monospace" font-size="9.5">10-04 21h</text><line x1="168.6" y1="198.0" x2="168.6" y2="201.0" stroke="#CBD4D9" stroke-width="1"/><text x="168.6" y="210.0" fill="#667078" text-anchor="middle" font-family="ui-monospace,SFMono-Regular,Menlo,Consolas,monospace" font-size="9.5">10-05 05h</text><line x1="242.9" y1="198.0" x2="242.9" y2="201.0" stroke="#CBD4D9" stroke-width="1"/><text x="242.9" y="210.0" fill="#667078" text-anchor="end" font-family="ui-monospace,SFMono-Regular,Menlo,Consolas,monospace" font-size="9.5">10-05 13h</text><text x="286.0" y="130.1" fill="#0E6E6B" font-family="ui-monospace,SFMono-Regular,Menlo,Consolas,monospace" font-size="10">109.748</text><text x="286.0" y="80.4" fill="#667078" font-family="ui-monospace,SFMono-Regular,Menlo,Consolas,monospace" font-size="10">110.114</text><rect x="354.0" y="134.4" width="458.0" height="9.4" fill="#0E6E6B1F"/><line x1="360.0" y1="71.5" x2="360.0" y2="89.1" stroke="#12171A" stroke-width="1"/><rect x="357.6" y="71.7" width="4.7" height="11.6" fill="#12171A" stroke="#12171A" stroke-width="1"/><line x1="367.6" y1="82.8" x2="367.6" y2="96.7" stroke="#12171A" stroke-width="1"/><rect x="365.3" y="83.2" width="4.7" height="3.6" fill="#12171A" stroke="#12171A" stroke-width="1"/><line x1="375.3" y1="71.2" x2="375.3" y2="87.8" stroke="#12171A" stroke-width="1"/><rect x="372.9" y="74.5" width="4.7" height="12.4" fill="#FFFFFF" stroke="#12171A" stroke-width="1"/><line x1="382.9" y1="66.4" x2="382.9" y2="74.5" stroke="#12171A" stroke-width="1"/><rect x="380.5" y="69.6" width="4.7" height="5.0" fill="#FFFFFF" stroke="#12171A" stroke-width="1"/><line x1="390.5" y1="66.6" x2="390.5" y2="76.2" stroke="#12171A" stroke-width="1"/><rect x="388.1" y="69.4" width="4.7" height="1.0" fill="#FFFFFF" stroke="#12171A" stroke-width="1"/><line x1="398.1" y1="69.2" x2="398.1" y2="76.9" stroke="#12171A" stroke-width="1"/><rect x="395.8" y="69.4" width="4.7" height="6.4" fill="#12171A" stroke="#12171A" stroke-width="1"/><line x1="405.8" y1="71.7" x2="405.8" y2="82.9" stroke="#12171A" stroke-width="1"/><rect x="403.4" y="74.4" width="4.7" height="7.5" fill="#12171A" stroke="#12171A" stroke-width="1"/><line x1="413.4" y1="78.2" x2="413.4" y2="89.1" stroke="#12171A" stroke-width="1"/><rect x="411.0" y="81.8" width="4.7" height="3.7" fill="#12171A" stroke="#12171A" stroke-width="1"/><line x1="421.0" y1="81.5" x2="421.0" y2="92.2" stroke="#12171A" stroke-width="1"/><rect x="418.7" y="84.2" width="4.7" height="1.4" fill="#FFFFFF" stroke="#12171A" stroke-width="1"/><line x1="428.6" y1="83.7" x2="428.6" y2="102.1" stroke="#12171A" stroke-width="1"/><rect x="426.3" y="84.2" width="4.7" height="17.8" fill="#12171A" stroke="#12171A" stroke-width="1"/><line x1="436.3" y1="101.1" x2="436.3" y2="116.6" stroke="#12171A" stroke-width="1"/><rect x="433.9" y="102.0" width="4.7" height="4.9" fill="#12171A" stroke="#12171A" stroke-width="1"/><line x1="443.9" y1="104.8" x2="443.9" y2="109.4" stroke="#12171A" stroke-width="1"/><rect x="441.5" y="106.9" width="4.7" height="1.0" fill="#12171A" stroke="#12171A" stroke-width="1"/><line x1="451.5" y1="98.3" x2="451.5" y2="116.8" stroke="#12171A" stroke-width="1"/><rect x="449.2" y="98.7" width="4.7" height="17.3" fill="#FFFFFF" stroke="#12171A" stroke-width="1"/><line x1="459.2" y1="93.6" x2="459.2" y2="101.6" stroke="#12171A" stroke-width="1"/><rect x="456.8" y="94.6" width="4.7" height="4.1" fill="#FFFFFF" stroke="#12171A" stroke-width="1"/><line x1="466.8" y1="93.4" x2="466.8" y2="128.8" stroke="#12171A" stroke-width="1"/><rect x="464.4" y="94.5" width="4.7" height="28.0" fill="#12171A" stroke="#12171A" stroke-width="1"/><line x1="474.4" y1="110.2" x2="474.4" y2="124.3" stroke="#12171A" stroke-width="1"/><rect x="472.0" y="110.7" width="4.7" height="11.8" fill="#FFFFFF" stroke="#12171A" stroke-width="1"/><line x1="482.0" y1="103.7" x2="482.0" y2="114.9" stroke="#12171A" stroke-width="1"/><rect x="479.7" y="107.2" width="4.7" height="3.4" fill="#FFFFFF" stroke="#12171A" stroke-width="1"/><line x1="489.7" y1="104.6" x2="489.7" y2="110.8" stroke="#12171A" stroke-width="1"/><rect x="487.3" y="107.2" width="4.7" height="2.5" fill="#12171A" stroke="#12171A" stroke-width="1"/><line x1="497.3" y1="106.3" x2="497.3" y2="114.6" stroke="#12171A" stroke-width="1"/><rect x="494.9" y="107.7" width="4.7" height="6.6" fill="#12171A" stroke="#12171A" stroke-width="1"/><line x1="504.9" y1="100.2" x2="504.9" y2="116.3" stroke="#12171A" stroke-width="1"/><rect x="502.6" y="106.3" width="4.7" height="8.0" fill="#FFFFFF" stroke="#12171A" stroke-width="1"/><line x1="512.5" y1="104.5" x2="512.5" y2="131.3" stroke="#12171A" stroke-width="1"/><rect x="510.2" y="106.4" width="4.7" height="18.3" fill="#12171A" stroke="#12171A" stroke-width="1"/><line x1="520.2" y1="119.6" x2="520.2" y2="129.3" stroke="#12171A" stroke-width="1"/><rect x="517.8" y="124.7" width="4.7" height="1.2" fill="#12171A" stroke="#12171A" stroke-width="1"/><line x1="527.8" y1="119.8" x2="527.8" y2="136.9" stroke="#12171A" stroke-width="1"/><rect x="525.4" y="126.0" width="4.7" height="8.9" fill="#12171A" stroke="#12171A" stroke-width="1"/><line x1="535.4" y1="127.0" x2="535.4" y2="136.0" stroke="#12171A" stroke-width="1"/><rect x="533.1" y="129.4" width="4.7" height="5.3" fill="#FFFFFF" stroke="#12171A" stroke-width="1"/><line x1="543.1" y1="123.8" x2="543.1" y2="134.1" stroke="#12171A" stroke-width="1"/><rect x="540.7" y="130.2" width="4.7" height="1.7" fill="#12171A" stroke="#12171A" stroke-width="1"/><line x1="550.7" y1="131.4" x2="550.7" y2="164.9" stroke="#12171A" stroke-width="1"/><rect x="548.3" y="131.9" width="4.7" height="9.6" fill="#12171A" stroke="#12171A" stroke-width="1"/><line x1="558.3" y1="140.6" x2="558.3" y2="150.4" stroke="#12171A" stroke-width="1"/><rect x="555.9" y="141.4" width="4.7" height="2.4" fill="#12171A" stroke="#12171A" stroke-width="1"/><line x1="565.9" y1="141.1" x2="565.9" y2="148.7" stroke="#12171A" stroke-width="1"/><rect x="563.6" y="143.7" width="4.7" height="4.5" fill="#12171A" stroke="#12171A" stroke-width="1"/><line x1="573.6" y1="147.3" x2="573.6" y2="160.5" stroke="#12171A" stroke-width="1"/><rect x="571.2" y="148.1" width="4.7" height="1.4" fill="#12171A" stroke="#12171A" stroke-width="1"/><line x1="581.2" y1="147.4" x2="581.2" y2="151.6" stroke="#12171A" stroke-width="1"/><rect x="578.8" y="149.4" width="4.7" height="1.0" fill="#12171A" stroke="#12171A" stroke-width="1"/><line x1="588.8" y1="137.4" x2="588.8" y2="151.2" stroke="#12171A" stroke-width="1"/><rect x="586.4" y="137.8" width="4.7" height="10.9" fill="#FFFFFF" stroke="#12171A" stroke-width="1"/><line x1="596.4" y1="124.0" x2="596.4" y2="139.2" stroke="#12171A" stroke-width="1"/><rect x="594.1" y="128.2" width="4.7" height="9.6" fill="#FFFFFF" stroke="#12171A" stroke-width="1"/><line x1="604.1" y1="121.3" x2="604.1" y2="133.3" stroke="#12171A" stroke-width="1"/><rect x="601.7" y="128.2" width="4.7" height="1.9" fill="#12171A" stroke="#12171A" stroke-width="1"/><line x1="611.7" y1="126.3" x2="611.7" y2="135.7" stroke="#12171A" stroke-width="1"/><rect x="609.3" y="130.1" width="4.7" height="2.2" fill="#12171A" stroke="#12171A" stroke-width="1"/><line x1="619.3" y1="131.7" x2="619.3" y2="171.6" stroke="#12171A" stroke-width="1"/><rect x="617.0" y="132.2" width="4.7" height="26.6" fill="#12171A" stroke="#12171A" stroke-width="1"/><line x1="626.9" y1="138.8" x2="626.9" y2="160.2" stroke="#12171A" stroke-width="1"/><rect x="624.6" y="140.8" width="4.7" height="18.0" fill="#FFFFFF" stroke="#12171A" stroke-width="1"/><line x1="634.6" y1="139.1" x2="634.6" y2="153.1" stroke="#12171A" stroke-width="1"/><rect x="632.2" y="139.2" width="4.7" height="8.0" fill="#12171A" stroke="#12171A" stroke-width="1"/><line x1="642.2" y1="142.6" x2="642.2" y2="151.5" stroke="#12171A" stroke-width="1"/><rect x="639.8" y="144.9" width="4.7" height="2.2" fill="#FFFFFF" stroke="#12171A" stroke-width="1"/><line x1="649.8" y1="138.9" x2="649.8" y2="150.4" stroke="#12171A" stroke-width="1"/><rect x="647.5" y="145.0" width="4.7" height="2.9" fill="#12171A" stroke="#12171A" stroke-width="1"/><line x1="657.5" y1="139.1" x2="657.5" y2="150.7" stroke="#12171A" stroke-width="1"/><rect x="655.1" y="142.5" width="4.7" height="5.4" fill="#FFFFFF" stroke="#12171A" stroke-width="1"/><line x1="665.1" y1="129.1" x2="665.1" y2="146.2" stroke="#12171A" stroke-width="1"/><rect x="662.7" y="136.7" width="4.7" height="5.9" fill="#FFFFFF" stroke="#12171A" stroke-width="1"/><line x1="672.7" y1="130.4" x2="672.7" y2="138.2" stroke="#12171A" stroke-width="1"/><rect x="670.3" y="131.3" width="4.7" height="5.4" fill="#FFFFFF" stroke="#12171A" stroke-width="1"/><line x1="680.3" y1="128.8" x2="680.3" y2="140.5" stroke="#12171A" stroke-width="1"/><rect x="678.0" y="131.8" width="4.7" height="4.4" fill="#12171A" stroke="#12171A" stroke-width="1"/><line x1="688.0" y1="134.4" x2="688.0" y2="143.7" stroke="#12171A" stroke-width="1"/><rect x="685.6" y="136.2" width="4.7" height="1.0" fill="#12171A" stroke="#12171A" stroke-width="1"/><line x1="695.6" y1="128.3" x2="695.6" y2="145.7" stroke="#12171A" stroke-width="1"/><rect x="693.2" y="128.5" width="4.7" height="8.2" fill="#FFFFFF" stroke="#12171A" stroke-width="1"/><line x1="703.2" y1="119.2" x2="703.2" y2="129.7" stroke="#12171A" stroke-width="1"/><rect x="700.9" y="120.2" width="4.7" height="8.4" fill="#FFFFFF" stroke="#12171A" stroke-width="1"/><line x1="710.8" y1="118.5" x2="710.8" y2="128.7" stroke="#12171A" stroke-width="1"/><rect x="708.5" y="120.3" width="4.7" height="1.3" fill="#12171A" stroke="#12171A" stroke-width="1"/><line x1="718.5" y1="118.9" x2="718.5" y2="122.3" stroke="#12171A" stroke-width="1"/><rect x="716.1" y="121.2" width="4.7" height="1.0" fill="#FFFFFF" stroke="#12171A" stroke-width="1"/><line x1="726.1" y1="119.1" x2="726.1" y2="127.8" stroke="#12171A" stroke-width="1"/><rect x="723.7" y="121.3" width="4.7" height="4.2" fill="#12171A" stroke="#12171A" stroke-width="1"/><line x1="733.7" y1="115.6" x2="733.7" y2="125.9" stroke="#12171A" stroke-width="1"/><rect x="731.4" y="117.5" width="4.7" height="8.1" fill="#FFFFFF" stroke="#12171A" stroke-width="1"/><line x1="741.4" y1="111.5" x2="741.4" y2="123.2" stroke="#12171A" stroke-width="1"/><rect x="739.0" y="113.2" width="4.7" height="4.3" fill="#FFFFFF" stroke="#12171A" stroke-width="1"/><line x1="749.0" y1="108.5" x2="749.0" y2="117.6" stroke="#12171A" stroke-width="1"/><rect x="746.6" y="111.4" width="4.7" height="1.7" fill="#FFFFFF" stroke="#12171A" stroke-width="1"/><line x1="756.6" y1="107.9" x2="756.6" y2="117.4" stroke="#12171A" stroke-width="1"/><rect x="754.2" y="110.3" width="4.7" height="1.1" fill="#FFFFFF" stroke="#12171A" stroke-width="1"/><line x1="764.2" y1="107.3" x2="764.2" y2="110.9" stroke="#12171A" stroke-width="1"/><rect x="761.9" y="110.1" width="4.7" height="1.0" fill="#FFFFFF" stroke="#12171A" stroke-width="1"/><line x1="771.9" y1="102.3" x2="771.9" y2="111.9" stroke="#12171A" stroke-width="1"/><rect x="769.5" y="105.2" width="4.7" height="5.1" fill="#FFFFFF" stroke="#12171A" stroke-width="1"/><line x1="779.5" y1="102.8" x2="779.5" y2="110.8" stroke="#12171A" stroke-width="1"/><rect x="777.1" y="105.2" width="4.7" height="5.3" fill="#12171A" stroke="#12171A" stroke-width="1"/><line x1="787.1" y1="109.6" x2="787.1" y2="126.4" stroke="#12171A" stroke-width="1"/><rect x="784.8" y="110.5" width="4.7" height="4.1" fill="#12171A" stroke="#12171A" stroke-width="1"/><line x1="794.7" y1="112.6" x2="794.7" y2="130.1" stroke="#12171A" stroke-width="1"/><rect x="792.4" y="114.6" width="4.7" height="12.3" fill="#12171A" stroke="#12171A" stroke-width="1"/><line x1="802.4" y1="120.3" x2="802.4" y2="128.4" stroke="#12171A" stroke-width="1"/><rect x="800.0" y="124.8" width="4.7" height="2.1" fill="#FFFFFF" stroke="#12171A" stroke-width="1"/><line x1="810.0" y1="122.4" x2="810.0" y2="125.4" stroke="#12171A" stroke-width="1"/><rect x="807.6" y="123.4" width="4.7" height="1.5" fill="#FFFFFF" stroke="#12171A" stroke-width="1"/><line x1="354.0" y1="134.4" x2="812.0" y2="134.4" stroke="#0E6E6B" stroke-width="1.4"/><line x1="354.0" y1="144.7" x2="812.0" y2="144.7" stroke="#1E7A4C" stroke-width="1.4" stroke-dasharray="4 3"/><circle cx="810.0" cy="123.4" r="3.6" fill="#12171A"/><line x1="354.0" y1="198.0" x2="812.0" y2="198.0" stroke="#E6EBEE" stroke-width="1"/><line x1="360.0" y1="198.0" x2="360.0" y2="201.0" stroke="#CBD4D9" stroke-width="1"/><text x="360.0" y="210.0" fill="#667078" text-anchor="start" font-family="ui-monospace,SFMono-Regular,Menlo,Consolas,monospace" font-size="9.5">09-23 21h</text><line x1="474.4" y1="198.0" x2="474.4" y2="201.0" stroke="#CBD4D9" stroke-width="1"/><text x="474.4" y="210.0" fill="#667078" text-anchor="middle" font-family="ui-monospace,SFMono-Regular,Menlo,Consolas,monospace" font-size="9.5">09-28 09h</text><line x1="588.8" y1="198.0" x2="588.8" y2="201.0" stroke="#CBD4D9" stroke-width="1"/><text x="588.8" y="210.0" fill="#667078" text-anchor="middle" font-family="ui-monospace,SFMono-Regular,Menlo,Consolas,monospace" font-size="9.5">09-30 21h</text><line x1="703.2" y1="198.0" x2="703.2" y2="201.0" stroke="#CBD4D9" stroke-width="1"/><text x="703.2" y="210.0" fill="#667078" text-anchor="end" font-family="ui-monospace,SFMono-Regular,Menlo,Consolas,monospace" font-size="9.5">10-05 09h</text><text x="816.0" y="137.8" fill="#0E6E6B" font-family="ui-monospace,SFMono-Regular,Menlo,Consolas,monospace" font-size="10">109.748</text><text x="816.0" y="148.1" fill="#1E7A4C" font-family="ui-monospace,SFMono-Regular,Menlo,Consolas,monospace" font-size="10">109.460</text><text x="816.0" y="126.8" fill="#12171A" font-family="ui-monospace,SFMono-Regular,Menlo,Consolas,monospace" font-size="10">110.055</text><g transform="translate(10.0,242)"><line x1="0" y1="4" x2="16" y2="4" stroke="#0E6E6B" stroke-width="2"/><text x="22" y="8" fill="#667078" font-family="system-ui,-apple-system,Segoe UI,Helvetica,Arial,sans-serif" font-size="10.5">limit (zone edge)</text></g><g transform="translate(135.8,242)"><line x1="0" y1="4" x2="16" y2="4" stroke="#1E7A4C" stroke-width="2" stroke-dasharray="4 3"/><text x="22" y="8" fill="#667078" font-family="system-ui,-apple-system,Segoe UI,Helvetica,Arial,sans-serif" font-size="10.5">stop</text></g><g transform="translate(191.4,242)"><line x1="0" y1="4" x2="16" y2="4" stroke="#667078" stroke-width="1" stroke-dasharray="1 3"/><text x="22" y="8" fill="#667078" font-family="system-ui,-apple-system,Segoe UI,Helvetica,Arial,sans-serif" font-size="10.5">swing the CHoCH took out</text></g><g transform="translate(355.0,242)"><rect x="1" y="0" width="14" height="9" fill="#0E6E6B1F" stroke="#0E6E6B55"/><text x="22" y="8" fill="#667078" font-family="system-ui,-apple-system,Segoe UI,Helvetica,Arial,sans-serif" font-size="10.5">block zone</text></g><g transform="translate(443.0,242)"><rect x="2" y="-1" width="11" height="11" fill="none" stroke="#0E6E6B" stroke-width="1.6" rx="2"/><text x="22" y="8" fill="#667078" font-family="system-ui,-apple-system,Segoe UI,Helvetica,Arial,sans-serif" font-size="10.5">block candle</text></g><g transform="translate(541.8,242)"><rect x="4" y="-2" width="7" height="12" fill="#FFFFFF" stroke="#12171A" stroke-width="1.3"/><text x="22" y="8" fill="#667078" font-family="system-ui,-apple-system,Segoe UI,Helvetica,Arial,sans-serif" font-size="10.5">closed up</text></g><g transform="translate(624.4,242)"><rect x="4" y="-2" width="7" height="12" fill="#12171A" stroke="#12171A" stroke-width="1.3"/><text x="22" y="8" fill="#667078" font-family="system-ui,-apple-system,Segoe UI,Helvetica,Arial,sans-serif" font-size="10.5">closed down</text></g><g transform="translate(717.8,242)"><circle cx="8" cy="4" r="3.6" fill="#12171A"/><text x="22" y="8" fill="#667078" font-family="system-ui,-apple-system,Segoe UI,Helvetica,Arial,sans-serif" font-size="10.5">price now</text></g></svg>