<svg xmlns="http://www.w3.org/2000/svg" viewBox="0 0 880 258" width="880" height="258" role="img" aria-label="EURCHF short order block: the candles that formed it, and where price is now"><rect width="880" height="258" fill="#FFFFFF"/><text x="10" y="22" fill="#12171A" font-family="system-ui,-apple-system,Segoe UI,Helvetica,Arial,sans-serif" font-size="15" font-weight="700">EURCHF <tspan fill="#A83A2E" font-size="12">SHORT</tspan> <tspan fill="#667078" font-size="12">daily block</tspan></text><text x="10" y="38" fill="#667078" font-family="ui-monospace,SFMono-Regular,Menlo,Consolas,monospace" font-size="11">limit 0.94486 · stop 0.94900 · 41p = 1R · 2.02R away · waited 2d</text><text x="20" y="42" fill="#667078" font-family="system-ui,-apple-system,Segoe UI,Helvetica,Arial,sans-serif" font-size="10" font-weight="600">HOW IT FORMED · 2026-09-29T21:00:00.000000000Z</text><text x="360" y="42" fill="#667078" font-family="system-ui,-apple-system,Segoe UI,Helvetica,Arial,sans-serif" font-size="10" font-weight="600">WHERE PRICE IS NOW</text><rect x="10.0" y="66.4" width="272.0" height="17.5" fill="#0E6E6B1F"/><line x1="10.0" y1="149.6" x2="282.0" y2="149.6" stroke="#667078" stroke-width="1" stroke-dasharray="1 3"/><line x1="10.0" y1="83.9" x2="282.0" y2="83.9" stroke="#0E6E6B" stroke-width="1.4"/><line x1="20.0" y1="80.3" x2="20.0" y2="100.0" stroke="#12171A" stroke-width="1"/><rect x="14.5" y="88.8" width="11.0" height="7.7" fill="#FFFFFF" stroke="#12171A" stroke-width="1"/><line x1="57.1" y1="75.8" x2="57.1" y2="92.8" stroke="#12171A" stroke-width="1"/><rect x="51.6" y="78.0" width="11.0" height="13.7" fill="#FFFFFF" stroke="#12171A" stroke-width="1"/><line x1="94.3" y1="73.2" x2="94.3" y2="86.0" stroke="#12171A" stroke-width="1"/><rect x="88.8" y="79.9" width="11.0" height="6.1" fill="#FFFFFF" stroke="#12171A" stroke-width="1"/><line x1="131.4" y1="66.4" x2="131.4" y2="83.9" stroke="#12171A" stroke-width="1"/><rect x="125.9" y="74.4" width="11.0" height="2.8" fill="#FFFFFF" stroke="#12171A" stroke-width="1"/><line x1="168.6" y1="69.9" x2="168.6" y2="141.7" stroke="#12171A" stroke-width="1"/><rect x="163.1" y="74.3" width="11.0" height="58.6" fill="#12171A" stroke="#12171A" stroke-width="1"/><line x1="205.7" y1="128.3" x2="205.7" y2="171.6" stroke="#12171A" stroke-width="1"/><rect x="200.2" y="132.8" width="11.0" height="8.3" fill="#12171A" stroke="#12171A" stroke-width="1"/><line x1="242.9" y1="136.0" x2="242.9" y2="166.0" stroke="#12171A" stroke-width="1"/><rect x="237.4" y="136.0" width="11.0" height="6.9" fill="#12171A" stroke="#12171A" stroke-width="1"/><line x1="280.0" y1="122.2" x2="280.0" y2="143.5" stroke="#12171A" stroke-width="1"/><rect x="274.5" y="122.7" width="11.0" height="17.3" fill="#FFFFFF" stroke="#12171A" stroke-width="1"/><rect x="122.9" y="63.4" width="17.0" height="23.5" fill="none" stroke="#0E6E6B" stroke-width="1.6" rx="2"/><text x="205.7" y="65" fill="#0E6E6B" text-anchor="middle" font-family="ui-monospace,SFMono-Regular,Menlo,Consolas,monospace" font-size="10" font-weight="700">C</text><line x1="10.0" y1="198.0" x2="282.0" y2="198.0" stroke="#E6EBEE" stroke-width="1"/><line x1="20.0" y1="198.0" x2="20.0" y2="201.0" stroke="#CBD4D9" stroke-width="1"/><text x="20.0" y="210.0" fill="#667078" text-anchor="start" font-family="ui-monospace,SFMono-Regular,Menlo,Consolas,monospace" font-size="9.5">09-24</text><line x1="94.3" y1="198.0" x2="94.3" y2="201.0" stroke="#CBD4D9" stroke-width="1"/><text x="94.3" y="210.0" fill="#667078" text-anchor="middle" font-family="ui-monospace,SFMono-Regular,Menlo,Consolas,monospace" font-size="9.5">09-28</text><line x1="168.6" y1="198.0" x2="168.6" y2="201.0" stroke="#CBD4D9" stroke-width="1"/><text x="168.6" y="210.0" fill="#667078" text-anchor="middle" font-family="ui-monospace,SFMono-Regular,Menlo,Consolas,monospace" font-size="9.5">09-30</text><line x1="242.9" y1="198.0" x2="242.9" y2="201.0" stroke="#CBD4D9" stroke-width="1"/><text x="242.9" y="210.0" fill="#667078" text-anchor="end" font-family="ui-monospace,SFMono-Regular,Menlo,Consolas,monospace" font-size="9.5">10-04</text><text x="286.0" y="87.3" fill="#0E6E6B" font-family="ui-monospace,SFMono-Regular,Menlo,Consolas,monospace" font-size="10">0.94486</text><text x="286.0" y="153.0" fill="#667078" font-family="ui-monospace,SFMono-Regular,Menlo,Consolas,monospace" font-size="10">0.93071</text><rect x="354.0" y="67.9" width="458.0" height="14.7" fill="#0E6E6B1F"/><line x1="360.0" y1="156.4" x2="360.0" y2="171.6" stroke="#12171A" stroke-width="1"/><rect x="357.6" y="165.1" width="4.7" height="2.3" fill="#12171A" stroke="#12171A" stroke-width="1"/><line x1="367.6" y1="157.6" x2="367.6" y2="168.7" stroke="#12171A" stroke-width="1"/><rect x="365.3" y="158.9" width="4.7" height="8.6" fill="#FFFFFF" stroke="#12171A" stroke-width="1"/><line x1="375.3" y1="158.3" x2="375.3" y2="170.3" stroke="#12171A" stroke-width="1"/><rect x="372.9" y="160.6" width="4.7" height="5.7" fill="#12171A" stroke="#12171A" stroke-width="1"/><line x1="382.9" y1="160.6" x2="382.9" y2="169.2" stroke="#12171A" stroke-width="1"/><rect x="380.5" y="160.7" width="4.7" height="3.5" fill="#FFFFFF" stroke="#12171A" stroke-width="1"/><line x1="390.5" y1="152.5" x2="390.5" y2="162.4" stroke="#12171A" stroke-width="1"/><rect x="388.1" y="154.6" width="4.7" height="6.5" fill="#FFFFFF" stroke="#12171A" stroke-width="1"/><line x1="398.1" y1="141.9" x2="398.1" y2="157.1" stroke="#12171A" stroke-width="1"/><rect x="395.8" y="143.1" width="4.7" height="14.0" fill="#FFFFFF" stroke="#12171A" stroke-width="1"/><line x1="405.8" y1="134.6" x2="405.8" y2="148.0" stroke="#12171A" stroke-width="1"/><rect x="403.4" y="143.1" width="4.7" height="1.0" fill="#12171A" stroke="#12171A" stroke-width="1"/><line x1="413.4" y1="138.5" x2="413.4" y2="144.7" stroke="#12171A" stroke-width="1"/><rect x="411.0" y="139.6" width="4.7" height="4.1" fill="#FFFFFF" stroke="#12171A" stroke-width="1"/><line x1="421.0" y1="134.6" x2="421.0" y2="148.7" stroke="#12171A" stroke-width="1"/><rect x="418.7" y="135.4" width="4.7" height="5.8" fill="#FFFFFF" stroke="#12171A" stroke-width="1"/><line x1="428.6" y1="128.6" x2="428.6" y2="137.1" stroke="#12171A" stroke-width="1"/><rect x="426.3" y="129.3" width="4.7" height="7.6" fill="#FFFFFF" stroke="#12171A" stroke-width="1"/><line x1="436.3" y1="123.1" x2="436.3" y2="134.7" stroke="#12171A" stroke-width="1"/><rect x="433.9" y="129.1" width="4.7" height="2.3" fill="#FFFFFF" stroke="#12171A" stroke-width="1"/><line x1="443.9" y1="121.4" x2="443.9" y2="151.7" stroke="#12171A" stroke-width="1"/><rect x="441.5" y="128.3" width="4.7" height="20.0" fill="#12171A" stroke="#12171A" stroke-width="1"/><line x1="451.5" y1="130.0" x2="451.5" y2="148.5" stroke="#12171A" stroke-width="1"/><rect x="449.2" y="138.1" width="4.7" height="7.7" fill="#FFFFFF" stroke="#12171A" stroke-width="1"/><line x1="459.2" y1="127.2" x2="459.2" y2="139.8" stroke="#12171A" stroke-width="1"/><rect x="456.8" y="130.3" width="4.7" height="4.4" fill="#FFFFFF" stroke="#12171A" stroke-width="1"/><line x1="466.8" y1="126.6" x2="466.8" y2="136.4" stroke="#12171A" stroke-width="1"/><rect x="464.4" y="129.1" width="4.7" height="1.0" fill="#FFFFFF" stroke="#12171A" stroke-width="1"/><line x1="474.4" y1="122.9" x2="474.4" y2="133.9" stroke="#12171A" stroke-width="1"/><rect x="472.0" y="127.5" width="4.7" height="3.3" fill="#12171A" stroke="#12171A" stroke-width="1"/><line x1="482.0" y1="112.4" x2="482.0" y2="134.8" stroke="#12171A" stroke-width="1"/><rect x="479.7" y="116.7" width="4.7" height="14.3" fill="#FFFFFF" stroke="#12171A" stroke-width="1"/><line x1="489.7" y1="115.0" x2="489.7" y2="129.0" stroke="#12171A" stroke-width="1"/><rect x="487.3" y="116.0" width="4.7" height="9.5" fill="#12171A" stroke="#12171A" stroke-width="1"/><line x1="497.3" y1="119.5" x2="497.3" y2="128.6" stroke="#12171A" stroke-width="1"/><rect x="494.9" y="120.0" width="4.7" height="1.8" fill="#FFFFFF" stroke="#12171A" stroke-width="1"/><line x1="504.9" y1="114.1" x2="504.9" y2="121.8" stroke="#12171A" stroke-width="1"/><rect x="502.6" y="117.3" width="4.7" height="3.5" fill="#FFFFFF" stroke="#12171A" stroke-width="1"/><line x1="512.5" y1="109.4" x2="512.5" y2="118.6" stroke="#12171A" stroke-width="1"/><rect x="510.2" y="110.8" width="4.7" height="6.9" fill="#FFFFFF" stroke="#12171A" stroke-width="1"/><line x1="520.2" y1="104.7" x2="520.2" y2="115.7" stroke="#12171A" stroke-width="1"/><rect x="517.8" y="106.9" width="4.7" height="6.8" fill="#FFFFFF" stroke="#12171A" stroke-width="1"/><line x1="527.8" y1="96.9" x2="527.8" y2="110.0" stroke="#12171A" stroke-width="1"/><rect x="525.4" y="97.1" width="4.7" height="12.8" fill="#FFFFFF" stroke="#12171A" stroke-width="1"/><line x1="535.4" y1="97.7" x2="535.4" y2="111.9" stroke="#12171A" stroke-width="1"/><rect x="533.1" y="102.0" width="4.7" height="3.4" fill="#12171A" stroke="#12171A" stroke-width="1"/><line x1="543.1" y1="97.8" x2="543.1" y2="107.5" stroke="#12171A" stroke-width="1"/><rect x="540.7" y="99.9" width="4.7" height="5.8" fill="#FFFFFF" stroke="#12171A" stroke-width="1"/><line x1="550.7" y1="98.7" x2="550.7" y2="137.8" stroke="#12171A" stroke-width="1"/><rect x="548.3" y="99.8" width="4.7" height="36.9" fill="#12171A" stroke="#12171A" stroke-width="1"/><line x1="558.3" y1="121.0" x2="558.3" y2="138.0" stroke="#12171A" stroke-width="1"/><rect x="555.9" y="122.0" width="4.7" height="13.8" fill="#FFFFFF" stroke="#12171A" stroke-width="1"/><line x1="565.9" y1="116.0" x2="565.9" y2="124.0" stroke="#12171A" stroke-width="1"/><rect x="563.6" y="118.8" width="4.7" height="4.1" fill="#FFFFFF" stroke="#12171A" stroke-width="1"/><line x1="573.6" y1="114.9" x2="573.6" y2="123.1" stroke="#12171A" stroke-width="1"/><rect x="571.2" y="116.7" width="4.7" height="1.0" fill="#12171A" stroke="#12171A" stroke-width="1"/><line x1="581.2" y1="111.2" x2="581.2" y2="120.0" stroke="#12171A" stroke-width="1"/><rect x="578.8" y="118.8" width="4.7" height="1.2" fill="#FFFFFF" stroke="#12171A" stroke-width="1"/><line x1="588.8" y1="105.6" x2="588.8" y2="119.8" stroke="#12171A" stroke-width="1"/><rect x="586.4" y="107.9" width="4.7" height="10.4" fill="#FFFFFF" stroke="#12171A" stroke-width="1"/><line x1="596.4" y1="103.9" x2="596.4" y2="117.5" stroke="#12171A" stroke-width="1"/><rect x="594.1" y="106.8" width="4.7" height="6.3" fill="#12171A" stroke="#12171A" stroke-width="1"/><line x1="604.1" y1="108.9" x2="604.1" y2="119.2" stroke="#12171A" stroke-width="1"/><rect x="601.7" y="111.8" width="4.7" height="2.1" fill="#FFFFFF" stroke="#12171A" stroke-width="1"/><line x1="611.7" y1="104.0" x2="611.7" y2="114.4" stroke="#12171A" stroke-width="1"/><rect x="609.3" y="105.2" width="4.7" height="6.1" fill="#FFFFFF" stroke="#12171A" stroke-width="1"/><line x1="619.3" y1="94.5" x2="619.3" y2="106.9" stroke="#12171A" stroke-width="1"/><rect x="617.0" y="98.1" width="4.7" height="7.0" fill="#FFFFFF" stroke="#12171A" stroke-width="1"/><line x1="626.9" y1="87.8" x2="626.9" y2="99.6" stroke="#12171A" stroke-width="1"/><rect x="624.6" y="93.5" width="4.7" height="4.5" fill="#FFFFFF" stroke="#12171A" stroke-width="1"/><line x1="634.6" y1="92.4" x2="634.6" y2="112.2" stroke="#12171A" stroke-width="1"/><rect x="632.2" y="93.7" width="4.7" height="12.2" fill="#12171A" stroke="#12171A" stroke-width="1"/><line x1="642.2" y1="94.7" x2="642.2" y2="108.0" stroke="#12171A" stroke-width="1"/><rect x="639.8" y="98.7" width="4.7" height="8.8" fill="#FFFFFF" stroke="#12171A" stroke-width="1"/><line x1="649.8" y1="94.8" x2="649.8" y2="102.2" stroke="#12171A" stroke-width="1"/><rect x="647.5" y="97.9" width="4.7" height="1.8" fill="#FFFFFF" stroke="#12171A" stroke-width="1"/><line x1="657.5" y1="90.7" x2="657.5" y2="102.2" stroke="#12171A" stroke-width="1"/><rect x="655.1" y="97.5" width="4.7" height="1.0" fill="#FFFFFF" stroke="#12171A" stroke-width="1"/><line x1="665.1" y1="90.9" x2="665.1" y2="102.6" stroke="#12171A" stroke-width="1"/><rect x="662.7" y="91.8" width="4.7" height="7.5" fill="#FFFFFF" stroke="#12171A" stroke-width="1"/><line x1="672.7" y1="83.9" x2="672.7" y2="97.7" stroke="#12171A" stroke-width="1"/><rect x="670.3" y="86.6" width="4.7" height="9.1" fill="#FFFFFF" stroke="#12171A" stroke-width="1"/><line x1="680.3" y1="72.9" x2="680.3" y2="88.0" stroke="#12171A" stroke-width="1"/><rect x="678.0" y="74.5" width="4.7" height="10.4" fill="#FFFFFF" stroke="#12171A" stroke-width="1"/><line x1="688.0" y1="72.5" x2="688.0" y2="92.1" stroke="#12171A" stroke-width="1"/><rect x="685.6" y="74.2" width="4.7" height="11.4" fill="#12171A" stroke="#12171A" stroke-width="1"/><line x1="695.6" y1="76.5" x2="695.6" y2="92.8" stroke="#12171A" stroke-width="1"/><rect x="693.2" y="82.0" width="4.7" height="4.5" fill="#FFFFFF" stroke="#12171A" stroke-width="1"/><line x1="703.2" y1="73.0" x2="703.2" y2="87.1" stroke="#12171A" stroke-width="1"/><rect x="700.9" y="75.0" width="4.7" height="9.9" fill="#FFFFFF" stroke="#12171A" stroke-width="1"/><line x1="710.8" y1="70.6" x2="710.8" y2="81.0" stroke="#12171A" stroke-width="1"/><rect x="708.5" y="76.7" width="4.7" height="1.0" fill="#12171A" stroke="#12171A" stroke-width="1"/><line x1="718.5" y1="71.5" x2="718.5" y2="87.3" stroke="#12171A" stroke-width="1"/><rect x="716.1" y="77.6" width="4.7" height="7.6" fill="#12171A" stroke="#12171A" stroke-width="1"/><line x1="726.1" y1="80.6" x2="726.1" y2="96.7" stroke="#12171A" stroke-width="1"/><rect x="723.7" y="83.4" width="4.7" height="12.8" fill="#12171A" stroke="#12171A" stroke-width="1"/><line x1="733.7" y1="91.9" x2="733.7" y2="108.0" stroke="#12171A" stroke-width="1"/><rect x="731.4" y="91.9" width="4.7" height="12.2" fill="#12171A" stroke="#12171A" stroke-width="1"/><line x1="741.4" y1="100.8" x2="741.4" y2="109.3" stroke="#12171A" stroke-width="1"/><rect x="739.0" y="102.0" width="4.7" height="1.8" fill="#12171A" stroke="#12171A" stroke-width="1"/><line x1="749.0" y1="88.6" x2="749.0" y2="112.1" stroke="#12171A" stroke-width="1"/><rect x="746.6" y="93.2" width="4.7" height="14.0" fill="#FFFFFF" stroke="#12171A" stroke-width="1"/><line x1="756.6" y1="79.6" x2="756.6" y2="96.2" stroke="#12171A" stroke-width="1"/><rect x="754.2" y="86.7" width="4.7" height="6.5" fill="#FFFFFF" stroke="#12171A" stroke-width="1"/><line x1="764.2" y1="75.8" x2="764.2" y2="90.1" stroke="#12171A" stroke-width="1"/><rect x="761.9" y="77.7" width="4.7" height="11.5" fill="#FFFFFF" stroke="#12171A" stroke-width="1"/><line x1="771.9" y1="73.6" x2="771.9" y2="84.4" stroke="#12171A" stroke-width="1"/><rect x="769.5" y="79.2" width="4.7" height="5.2" fill="#FFFFFF" stroke="#12171A" stroke-width="1"/><line x1="779.5" y1="67.9" x2="779.5" y2="82.6" stroke="#12171A" stroke-width="1"/><rect x="777.1" y="74.6" width="4.7" height="2.3" fill="#FFFFFF" stroke="#12171A" stroke-width="1"/><line x1="787.1" y1="70.8" x2="787.1" y2="131.3" stroke="#12171A" stroke-width="1"/><rect x="784.8" y="74.5" width="4.7" height="49.3" fill="#12171A" stroke="#12171A" stroke-width="1"/><line x1="794.7" y1="120.0" x2="794.7" y2="156.5" stroke="#12171A" stroke-width="1"/><rect x="792.4" y="123.8" width="4.7" height="7.0" fill="#12171A" stroke="#12171A" stroke-width="1"/><line x1="802.4" y1="126.5" x2="802.4" y2="151.7" stroke="#12171A" stroke-width="1"/><rect x="800.0" y="126.5" width="4.7" height="5.8" fill="#12171A" stroke="#12171A" stroke-width="1"/><line x1="810.0" y1="114.8" x2="810.0" y2="132.8" stroke="#12171A" stroke-width="1"/><rect x="807.6" y="115.3" width="4.7" height="14.6" fill="#FFFFFF" stroke="#12171A" stroke-width="1"/><line x1="354.0" y1="82.6" x2="812.0" y2="82.6" stroke="#0E6E6B" stroke-width="1.4"/><line x1="354.0" y1="66.4" x2="812.0" y2="66.4" stroke="#A83A2E" stroke-width="1.4" stroke-dasharray="4 3"/><circle cx="810.0" cy="115.3" r="3.6" fill="#12171A"/><line x1="354.0" y1="198.0" x2="812.0" y2="198.0" stroke="#E6EBEE" stroke-width="1"/><line x1="360.0" y1="198.0" x2="360.0" y2="201.0" stroke="#CBD4D9" stroke-width="1"/><text x="360.0" y="210.0" fill="#667078" text-anchor="start" font-family="ui-monospace,SFMono-Regular,Menlo,Consolas,monospace" font-size="9.5">07-14</text><line x1="474.4" y1="198.0" x2="474.4" y2="201.0" stroke="#CBD4D9" stroke-width="1"/><text x="474.4" y="210.0" fill="#667078" text-anchor="middle" font-family="ui-monospace,SFMono-Regular,Menlo,Consolas,monospace" font-size="9.5">08-04</text><line x1="588.8" y1="198.0" x2="588.8" y2="201.0" stroke="#CBD4D9" stroke-width="1"/><text x="588.8" y="210.0" fill="#667078" text-anchor="middle" font-family="ui-monospace,SFMono-Regular,Menlo,Consolas,monospace" font-size="9.5">08-25</text><line x1="703.2" y1="198.0" x2="703.2" y2="201.0" stroke="#CBD4D9" stroke-width="1"/><text x="703.2" y="210.0" fill="#667078" text-anchor="end" font-family="ui-monospace,SFMono-Regular,Menlo,Consolas,monospace" font-size="9.5">09-15</text><text x="816.0" y="86.0" fill="#0E6E6B" font-family="ui-monospace,SFMono-Regular,Menlo,Consolas,monospace" font-size="10">0.94486</text><text x="816.0" y="69.8" fill="#A83A2E" font-family="ui-monospace,SFMono-Regular,Menlo,Consolas,monospace" font-size="10">0.94900</text><text x="816.0" y="118.7" fill="#12171A" font-family="ui-monospace,SFMono-Regular,Menlo,Consolas,monospace" font-size="10">0.93650</text><g transform="translate(10.0,242)"><line x1="0" y1="4" x2="16" y2="4" stroke="#0E6E6B" stroke-width="2"/><text x="22" y="8" fill="#667078" font-family="system-ui,-apple-system,Segoe UI,Helvetica,Arial,sans-serif" font-size="10.5">limit (zone edge)</text></g><g transform="translate(135.8,242)"><line x1="0" y1="4" x2="16" y2="4" stroke="#A83A2E" stroke-width="2" stroke-dasharray="4 3"/><text x="22" y="8" fill="#667078" font-family="system-ui,-apple-system,Segoe UI,Helvetica,Arial,sans-serif" font-size="10.5">stop</text></g><g transform="translate(191.4,242)"><line x1="0" y1="4" x2="16" y2="4" stroke="#667078" stroke-width="1" stroke-dasharray="1 3"/><text x="22" y="8" fill="#667078" font-family="system-ui,-apple-system,Segoe UI,Helvetica,Arial,sans-serif" font-size="10.5">swing the CHoCH took out</text></g><g transform="translate(355.0,242)"><rect x="1" y="0" width="14" height="9" fill="#0E6E6B1F" stroke="#0E6E6B55"/><text x="22" y="8" fill="#667078" font-family="system-ui,-apple-system,Segoe UI,Helvetica,Arial,sans-serif" font-size="10.5">block zone</text></g><g transform="translate(443.0,242)"><rect x="2" y="-1" width="11" height="11" fill="none" stroke="#0E6E6B" stroke-width="1.6" rx="2"/><text x="22" y="8" fill="#667078" font-family="system-ui,-apple-system,Segoe UI,Helvetica,Arial,sans-serif" font-size="10.5">block candle</text></g><g transform="translate(541.8,242)"><rect x="4" y="-2" width="7" height="12" fill="#FFFFFF" stroke="#12171A" stroke-width="1.3"/><text x="22" y="8" fill="#667078" font-family="system-ui,-apple-system,Segoe UI,Helvetica,Arial,sans-serif" font-size="10.5">closed up</text></g><g transform="translate(624.4,242)"><rect x="4" y="-2" width="7" height="12" fill="#12171A" stroke="#12171A" stroke-width="1.3"/><text x="22" y="8" fill="#667078" font-family="system-ui,-apple-system,Segoe UI,Helvetica,Arial,sans-serif" font-size="10.5">closed down</text></g><g transform="translate(717.8,242)"><circle cx="8" cy="4" r="3.6" fill="#12171A"/><text x="22" y="8" fill="#667078" font-family="system-ui,-apple-system,Segoe UI,Helvetica,Arial,sans-serif" font-size="10.5">price now</text></g></svg>