<svg xmlns="http://www.w3.org/2000/svg" viewBox="0 0 880 258" width="880" height="258" role="img" aria-label="USDCHF short order block: the candles that formed it, and where price is now"><rect width="880" height="258" fill="#FFFFFF"/><text x="10" y="22" fill="#12171A" font-family="system-ui,-apple-system,Segoe UI,Helvetica,Arial,sans-serif" font-size="15" font-weight="700">USDCHF <tspan fill="#A83A2E" font-size="12">SHORT</tspan> <tspan fill="#667078" font-size="12">4-hour block</tspan></text><text x="10" y="38" fill="#667078" font-family="ui-monospace,SFMono-Regular,Menlo,Consolas,monospace" font-size="11">limit 0.83457 · stop 0.83753 · 30p = 1R · 0.40R away · waited 4d</text><text x="20" y="42" fill="#667078" font-family="system-ui,-apple-system,Segoe UI,Helvetica,Arial,sans-serif" font-size="10" font-weight="600">HOW IT FORMED · 2026-10-01T09:00:00.000000000Z</text><text x="360" y="42" fill="#667078" font-family="system-ui,-apple-system,Segoe UI,Helvetica,Arial,sans-serif" font-size="10" font-weight="600">WHERE PRICE IS NOW</text><rect x="10.0" y="78.0" width="272.0" height="31.2" fill="#0E6E6B1F"/><line x1="10.0" y1="137.8" x2="282.0" y2="137.8" stroke="#667078" stroke-width="1" stroke-dasharray="1 3"/><line x1="10.0" y1="109.2" x2="282.0" y2="109.2" stroke="#0E6E6B" stroke-width="1.4"/><line x1="20.0" y1="94.7" x2="20.0" y2="107.5" stroke="#12171A" stroke-width="1"/><rect x="14.5" y="95.3" width="11.0" height="6.6" fill="#12171A" stroke="#12171A" stroke-width="1"/><line x1="63.3" y1="84.5" x2="63.3" y2="106.5" stroke="#12171A" stroke-width="1"/><rect x="57.8" y="85.2" width="11.0" height="16.7" fill="#FFFFFF" stroke="#12171A" stroke-width="1"/><line x1="106.7" y1="66.4" x2="106.7" y2="123.5" stroke="#12171A" stroke-width="1"/><rect x="101.2" y="85.5" width="11.0" height="15.2" fill="#12171A" stroke="#12171A" stroke-width="1"/><line x1="150.0" y1="78.0" x2="150.0" y2="109.2" stroke="#12171A" stroke-width="1"/><rect x="144.5" y="99.1" width="11.0" height="1.3" fill="#FFFFFF" stroke="#12171A" stroke-width="1"/><line x1="193.3" y1="93.2" x2="193.3" y2="171.6" stroke="#12171A" stroke-width="1"/><rect x="187.8" y="99.1" width="11.0" height="38.8" fill="#12171A" stroke="#12171A" stroke-width="1"/><line x1="236.7" y1="127.6" x2="236.7" y2="159.3" stroke="#12171A" stroke-width="1"/><rect x="231.2" y="138.0" width="11.0" height="11.6" fill="#12171A" stroke="#12171A" stroke-width="1"/><line x1="280.0" y1="140.7" x2="280.0" y2="157.5" stroke="#12171A" stroke-width="1"/><rect x="274.5" y="143.6" width="11.0" height="5.6" fill="#FFFFFF" stroke="#12171A" stroke-width="1"/><rect x="141.5" y="75.0" width="17.0" height="37.2" fill="none" stroke="#0E6E6B" stroke-width="1.6" rx="2"/><text x="193.3" y="65" fill="#0E6E6B" text-anchor="middle" font-family="ui-monospace,SFMono-Regular,Menlo,Consolas,monospace" font-size="10" font-weight="700">C</text><line x1="10.0" y1="198.0" x2="282.0" y2="198.0" stroke="#E6EBEE" stroke-width="1"/><line x1="20.0" y1="198.0" x2="20.0" y2="201.0" stroke="#CBD4D9" stroke-width="1"/><text x="20.0" y="210.0" fill="#667078" text-anchor="start" font-family="ui-monospace,SFMono-Regular,Menlo,Consolas,monospace" font-size="9.5">09-30 21h</text><line x1="106.7" y1="198.0" x2="106.7" y2="201.0" stroke="#CBD4D9" stroke-width="1"/><text x="106.7" y="210.0" fill="#667078" text-anchor="middle" font-family="ui-monospace,SFMono-Regular,Menlo,Consolas,monospace" font-size="9.5">10-01 05h</text><line x1="193.3" y1="198.0" x2="193.3" y2="201.0" stroke="#CBD4D9" stroke-width="1"/><text x="193.3" y="210.0" fill="#667078" text-anchor="middle" font-family="ui-monospace,SFMono-Regular,Menlo,Consolas,monospace" font-size="9.5">10-01 13h</text><line x1="280.0" y1="198.0" x2="280.0" y2="201.0" stroke="#CBD4D9" stroke-width="1"/><text x="280.0" y="210.0" fill="#667078" text-anchor="end" font-family="ui-monospace,SFMono-Regular,Menlo,Consolas,monospace" font-size="9.5">10-01 21h</text><text x="286.0" y="112.6" fill="#0E6E6B" font-family="ui-monospace,SFMono-Regular,Menlo,Consolas,monospace" font-size="10">0.83457</text><text x="286.0" y="141.2" fill="#667078" font-family="ui-monospace,SFMono-Regular,Menlo,Consolas,monospace" font-size="10">0.83210</text><rect x="354.0" y="73.2" width="458.0" height="18.2" fill="#0E6E6B1F"/><line x1="360.0" y1="151.8" x2="360.0" y2="159.6" stroke="#12171A" stroke-width="1"/><rect x="357.6" y="155.6" width="4.7" height="4.0" fill="#FFFFFF" stroke="#12171A" stroke-width="1"/><line x1="367.6" y1="152.8" x2="367.6" y2="163.5" stroke="#12171A" stroke-width="1"/><rect x="365.3" y="155.6" width="4.7" height="5.7" fill="#12171A" stroke="#12171A" stroke-width="1"/><line x1="375.3" y1="135.3" x2="375.3" y2="170.4" stroke="#12171A" stroke-width="1"/><rect x="372.9" y="136.5" width="4.7" height="24.8" fill="#FFFFFF" stroke="#12171A" stroke-width="1"/><line x1="382.9" y1="133.0" x2="382.9" y2="145.6" stroke="#12171A" stroke-width="1"/><rect x="380.5" y="136.5" width="4.7" height="2.2" fill="#12171A" stroke="#12171A" stroke-width="1"/><line x1="390.5" y1="124.5" x2="390.5" y2="146.3" stroke="#12171A" stroke-width="1"/><rect x="388.1" y="137.8" width="4.7" height="1.0" fill="#FFFFFF" stroke="#12171A" stroke-width="1"/><line x1="398.1" y1="128.1" x2="398.1" y2="142.8" stroke="#12171A" stroke-width="1"/><rect x="395.8" y="136.8" width="4.7" height="1.0" fill="#FFFFFF" stroke="#12171A" stroke-width="1"/><line x1="405.8" y1="133.0" x2="405.8" y2="140.9" stroke="#12171A" stroke-width="1"/><rect x="403.4" y="136.1" width="4.7" height="1.0" fill="#FFFFFF" stroke="#12171A" stroke-width="1"/><line x1="413.4" y1="126.8" x2="413.4" y2="138.1" stroke="#12171A" stroke-width="1"/><rect x="411.0" y="127.7" width="4.7" height="8.6" fill="#FFFFFF" stroke="#12171A" stroke-width="1"/><line x1="421.0" y1="123.7" x2="421.0" y2="134.0" stroke="#12171A" stroke-width="1"/><rect x="418.7" y="127.6" width="4.7" height="3.8" fill="#12171A" stroke="#12171A" stroke-width="1"/><line x1="428.6" y1="123.5" x2="428.6" y2="138.7" stroke="#12171A" stroke-width="1"/><rect x="426.3" y="131.4" width="4.7" height="1.9" fill="#12171A" stroke="#12171A" stroke-width="1"/><line x1="436.3" y1="125.0" x2="436.3" y2="141.8" stroke="#12171A" stroke-width="1"/><rect x="433.9" y="133.3" width="4.7" height="1.0" fill="#12171A" stroke="#12171A" stroke-width="1"/><line x1="443.9" y1="127.7" x2="443.9" y2="136.0" stroke="#12171A" stroke-width="1"/><rect x="441.5" y="132.3" width="4.7" height="1.0" fill="#FFFFFF" stroke="#12171A" stroke-width="1"/><line x1="451.5" y1="121.6" x2="451.5" y2="133.7" stroke="#12171A" stroke-width="1"/><rect x="449.2" y="124.9" width="4.7" height="5.4" fill="#FFFFFF" stroke="#12171A" stroke-width="1"/><line x1="459.2" y1="124.3" x2="459.2" y2="128.9" stroke="#12171A" stroke-width="1"/><rect x="456.8" y="124.8" width="4.7" height="1.0" fill="#FFFFFF" stroke="#12171A" stroke-width="1"/><line x1="466.8" y1="112.3" x2="466.8" y2="125.0" stroke="#12171A" stroke-width="1"/><rect x="464.4" y="114.7" width="4.7" height="10.1" fill="#FFFFFF" stroke="#12171A" stroke-width="1"/><line x1="474.4" y1="104.9" x2="474.4" y2="117.6" stroke="#12171A" stroke-width="1"/><rect x="472.0" y="109.7" width="4.7" height="4.9" fill="#FFFFFF" stroke="#12171A" stroke-width="1"/><line x1="482.0" y1="103.6" x2="482.0" y2="119.5" stroke="#12171A" stroke-width="1"/><rect x="479.7" y="109.7" width="4.7" height="1.0" fill="#12171A" stroke="#12171A" stroke-width="1"/><line x1="489.7" y1="106.6" x2="489.7" y2="117.8" stroke="#12171A" stroke-width="1"/><rect x="487.3" y="108.5" width="4.7" height="1.5" fill="#FFFFFF" stroke="#12171A" stroke-width="1"/><line x1="497.3" y1="104.0" x2="497.3" y2="113.7" stroke="#12171A" stroke-width="1"/><rect x="494.9" y="106.3" width="4.7" height="2.3" fill="#FFFFFF" stroke="#12171A" stroke-width="1"/><line x1="504.9" y1="98.9" x2="504.9" y2="109.3" stroke="#12171A" stroke-width="1"/><rect x="502.6" y="99.0" width="4.7" height="7.2" fill="#FFFFFF" stroke="#12171A" stroke-width="1"/><line x1="512.5" y1="93.3" x2="512.5" y2="105.5" stroke="#12171A" stroke-width="1"/><rect x="510.2" y="95.0" width="4.7" height="4.1" fill="#FFFFFF" stroke="#12171A" stroke-width="1"/><line x1="520.2" y1="88.6" x2="520.2" y2="103.8" stroke="#12171A" stroke-width="1"/><rect x="517.8" y="94.8" width="4.7" height="2.2" fill="#12171A" stroke="#12171A" stroke-width="1"/><line x1="527.8" y1="82.5" x2="527.8" y2="99.4" stroke="#12171A" stroke-width="1"/><rect x="525.4" y="83.6" width="4.7" height="13.4" fill="#FFFFFF" stroke="#12171A" stroke-width="1"/><line x1="535.4" y1="82.7" x2="535.4" y2="100.5" stroke="#12171A" stroke-width="1"/><rect x="533.1" y="83.6" width="4.7" height="12.7" fill="#12171A" stroke="#12171A" stroke-width="1"/><line x1="543.1" y1="91.5" x2="543.1" y2="99.5" stroke="#12171A" stroke-width="1"/><rect x="540.7" y="93.9" width="4.7" height="1.0" fill="#FFFFFF" stroke="#12171A" stroke-width="1"/><line x1="550.7" y1="90.3" x2="550.7" y2="100.5" stroke="#12171A" stroke-width="1"/><rect x="548.3" y="90.9" width="4.7" height="2.8" fill="#FFFFFF" stroke="#12171A" stroke-width="1"/><line x1="558.3" y1="90.6" x2="558.3" y2="105.5" stroke="#12171A" stroke-width="1"/><rect x="555.9" y="90.9" width="4.7" height="14.2" fill="#12171A" stroke="#12171A" stroke-width="1"/><line x1="565.9" y1="89.4" x2="565.9" y2="108.1" stroke="#12171A" stroke-width="1"/><rect x="563.6" y="97.5" width="4.7" height="7.6" fill="#FFFFFF" stroke="#12171A" stroke-width="1"/><line x1="573.6" y1="85.2" x2="573.6" y2="101.3" stroke="#12171A" stroke-width="1"/><rect x="571.2" y="87.6" width="4.7" height="9.9" fill="#FFFFFF" stroke="#12171A" stroke-width="1"/><line x1="581.2" y1="80.4" x2="581.2" y2="89.6" stroke="#12171A" stroke-width="1"/><rect x="578.8" y="83.2" width="4.7" height="4.5" fill="#FFFFFF" stroke="#12171A" stroke-width="1"/><line x1="588.8" y1="82.9" x2="588.8" y2="90.4" stroke="#12171A" stroke-width="1"/><rect x="586.4" y="83.3" width="4.7" height="3.9" fill="#12171A" stroke="#12171A" stroke-width="1"/><line x1="596.4" y1="77.0" x2="596.4" y2="89.8" stroke="#12171A" stroke-width="1"/><rect x="594.1" y="77.4" width="4.7" height="9.7" fill="#FFFFFF" stroke="#12171A" stroke-width="1"/><line x1="604.1" y1="66.4" x2="604.1" y2="99.8" stroke="#12171A" stroke-width="1"/><rect x="601.7" y="77.6" width="4.7" height="8.9" fill="#12171A" stroke="#12171A" stroke-width="1"/><line x1="611.7" y1="73.2" x2="611.7" y2="91.4" stroke="#12171A" stroke-width="1"/><rect x="609.3" y="85.5" width="4.7" height="1.0" fill="#FFFFFF" stroke="#12171A" stroke-width="1"/><line x1="619.3" y1="82.0" x2="619.3" y2="127.9" stroke="#12171A" stroke-width="1"/><rect x="617.0" y="85.5" width="4.7" height="22.7" fill="#12171A" stroke="#12171A" stroke-width="1"/><line x1="626.9" y1="102.1" x2="626.9" y2="120.7" stroke="#12171A" stroke-width="1"/><rect x="624.6" y="108.2" width="4.7" height="6.8" fill="#12171A" stroke="#12171A" stroke-width="1"/><line x1="634.6" y1="109.8" x2="634.6" y2="119.6" stroke="#12171A" stroke-width="1"/><rect x="632.2" y="111.5" width="4.7" height="3.2" fill="#FFFFFF" stroke="#12171A" stroke-width="1"/><line x1="642.2" y1="104.0" x2="642.2" y2="128.9" stroke="#12171A" stroke-width="1"/><rect x="639.8" y="111.8" width="4.7" height="12.5" fill="#12171A" stroke="#12171A" stroke-width="1"/><line x1="649.8" y1="122.7" x2="649.8" y2="145.3" stroke="#12171A" stroke-width="1"/><rect x="647.5" y="124.2" width="4.7" height="9.9" fill="#12171A" stroke="#12171A" stroke-width="1"/><line x1="657.5" y1="127.6" x2="657.5" y2="171.6" stroke="#12171A" stroke-width="1"/><rect x="655.1" y="134.3" width="4.7" height="7.1" fill="#12171A" stroke="#12171A" stroke-width="1"/><line x1="665.1" y1="123.7" x2="665.1" y2="147.5" stroke="#12171A" stroke-width="1"/><rect x="662.7" y="126.6" width="4.7" height="14.8" fill="#FFFFFF" stroke="#12171A" stroke-width="1"/><line x1="672.7" y1="124.5" x2="672.7" y2="134.2" stroke="#12171A" stroke-width="1"/><rect x="670.3" y="126.6" width="4.7" height="3.7" fill="#12171A" stroke="#12171A" stroke-width="1"/><line x1="680.3" y1="128.1" x2="680.3" y2="137.5" stroke="#12171A" stroke-width="1"/><rect x="678.0" y="131.2" width="4.7" height="1.0" fill="#12171A" stroke="#12171A" stroke-width="1"/><line x1="688.0" y1="111.4" x2="688.0" y2="132.6" stroke="#12171A" stroke-width="1"/><rect x="685.6" y="121.4" width="4.7" height="10.7" fill="#FFFFFF" stroke="#12171A" stroke-width="1"/><line x1="695.6" y1="116.2" x2="695.6" y2="132.1" stroke="#12171A" stroke-width="1"/><rect x="693.2" y="121.5" width="4.7" height="5.1" fill="#12171A" stroke="#12171A" stroke-width="1"/><line x1="703.2" y1="112.2" x2="703.2" y2="130.6" stroke="#12171A" stroke-width="1"/><rect x="700.9" y="116.6" width="4.7" height="9.7" fill="#FFFFFF" stroke="#12171A" stroke-width="1"/><line x1="710.8" y1="105.8" x2="710.8" y2="116.9" stroke="#12171A" stroke-width="1"/><rect x="708.5" y="109.3" width="4.7" height="7.2" fill="#FFFFFF" stroke="#12171A" stroke-width="1"/><line x1="718.5" y1="106.5" x2="718.5" y2="119.1" stroke="#12171A" stroke-width="1"/><rect x="716.1" y="109.4" width="4.7" height="9.0" fill="#12171A" stroke="#12171A" stroke-width="1"/><line x1="726.1" y1="110.3" x2="726.1" y2="119.1" stroke="#12171A" stroke-width="1"/><rect x="723.7" y="113.7" width="4.7" height="3.0" fill="#12171A" stroke="#12171A" stroke-width="1"/><line x1="733.7" y1="109.8" x2="733.7" y2="120.6" stroke="#12171A" stroke-width="1"/><rect x="731.4" y="111.2" width="4.7" height="5.5" fill="#FFFFFF" stroke="#12171A" stroke-width="1"/><line x1="741.4" y1="104.2" x2="741.4" y2="113.1" stroke="#12171A" stroke-width="1"/><rect x="739.0" y="109.7" width="4.7" height="1.6" fill="#FFFFFF" stroke="#12171A" stroke-width="1"/><line x1="749.0" y1="108.8" x2="749.0" y2="123.7" stroke="#12171A" stroke-width="1"/><rect x="746.6" y="109.6" width="4.7" height="7.0" fill="#12171A" stroke="#12171A" stroke-width="1"/><line x1="756.6" y1="104.9" x2="756.6" y2="120.7" stroke="#12171A" stroke-width="1"/><rect x="754.2" y="113.0" width="4.7" height="3.7" fill="#FFFFFF" stroke="#12171A" stroke-width="1"/><line x1="764.2" y1="109.7" x2="764.2" y2="114.9" stroke="#12171A" stroke-width="1"/><rect x="761.9" y="111.1" width="4.7" height="1.8" fill="#FFFFFF" stroke="#12171A" stroke-width="1"/><line x1="771.9" y1="104.4" x2="771.9" y2="113.6" stroke="#12171A" stroke-width="1"/><rect x="769.5" y="105.4" width="4.7" height="5.6" fill="#FFFFFF" stroke="#12171A" stroke-width="1"/><line x1="779.5" y1="98.1" x2="779.5" y2="105.3" stroke="#12171A" stroke-width="1"/><rect x="777.1" y="98.8" width="4.7" height="6.5" fill="#FFFFFF" stroke="#12171A" stroke-width="1"/><line x1="787.1" y1="97.5" x2="787.1" y2="109.0" stroke="#12171A" stroke-width="1"/><rect x="784.8" y="98.8" width="4.7" height="1.9" fill="#12171A" stroke="#12171A" stroke-width="1"/><line x1="794.7" y1="95.9" x2="794.7" y2="110.9" stroke="#12171A" stroke-width="1"/><rect x="792.4" y="97.8" width="4.7" height="2.7" fill="#FFFFFF" stroke="#12171A" stroke-width="1"/><line x1="802.4" y1="94.0" x2="802.4" y2="110.0" stroke="#12171A" stroke-width="1"/><rect x="800.0" y="97.8" width="4.7" height="1.0" fill="#12171A" stroke="#12171A" stroke-width="1"/><line x1="810.0" y1="97.1" x2="810.0" y2="104.1" stroke="#12171A" stroke-width="1"/><rect x="807.6" y="98.6" width="4.7" height="1.0" fill="#12171A" stroke="#12171A" stroke-width="1"/><line x1="354.0" y1="91.4" x2="812.0" y2="91.4" stroke="#0E6E6B" stroke-width="1.4"/><line x1="354.0" y1="71.4" x2="812.0" y2="71.4" stroke="#A83A2E" stroke-width="1.4" stroke-dasharray="4 3"/><circle cx="810.0" cy="99.3" r="3.6" fill="#12171A"/><line x1="354.0" y1="198.0" x2="812.0" y2="198.0" stroke="#E6EBEE" stroke-width="1"/><line x1="360.0" y1="198.0" x2="360.0" y2="201.0" stroke="#CBD4D9" stroke-width="1"/><text x="360.0" y="210.0" fill="#667078" text-anchor="start" font-family="ui-monospace,SFMono-Regular,Menlo,Consolas,monospace" font-size="9.5">09-23 21h</text><line x1="474.4" y1="198.0" x2="474.4" y2="201.0" stroke="#CBD4D9" stroke-width="1"/><text x="474.4" y="210.0" fill="#667078" text-anchor="middle" font-family="ui-monospace,SFMono-Regular,Menlo,Consolas,monospace" font-size="9.5">09-28 09h</text><line x1="588.8" y1="198.0" x2="588.8" y2="201.0" stroke="#CBD4D9" stroke-width="1"/><text x="588.8" y="210.0" fill="#667078" text-anchor="middle" font-family="ui-monospace,SFMono-Regular,Menlo,Consolas,monospace" font-size="9.5">09-30 21h</text><line x1="703.2" y1="198.0" x2="703.2" y2="201.0" stroke="#CBD4D9" stroke-width="1"/><text x="703.2" y="210.0" fill="#667078" text-anchor="end" font-family="ui-monospace,SFMono-Regular,Menlo,Consolas,monospace" font-size="9.5">10-05 09h</text><text x="816.0" y="94.8" fill="#0E6E6B" font-family="ui-monospace,SFMono-Regular,Menlo,Consolas,monospace" font-size="10">0.83457</text><text x="816.0" y="74.8" fill="#A83A2E" font-family="ui-monospace,SFMono-Regular,Menlo,Consolas,monospace" font-size="10">0.83753</text><text x="816.0" y="102.7" fill="#12171A" font-family="ui-monospace,SFMono-Regular,Menlo,Consolas,monospace" font-size="10">0.83340</text><g transform="translate(10.0,242)"><line x1="0" y1="4" x2="16" y2="4" stroke="#0E6E6B" stroke-width="2"/><text x="22" y="8" fill="#667078" font-family="system-ui,-apple-system,Segoe UI,Helvetica,Arial,sans-serif" font-size="10.5">limit (zone edge)</text></g><g transform="translate(135.8,242)"><line x1="0" y1="4" x2="16" y2="4" stroke="#A83A2E" stroke-width="2" stroke-dasharray="4 3"/><text x="22" y="8" fill="#667078" font-family="system-ui,-apple-system,Segoe UI,Helvetica,Arial,sans-serif" font-size="10.5">stop</text></g><g transform="translate(191.4,242)"><line x1="0" y1="4" x2="16" y2="4" stroke="#667078" stroke-width="1" stroke-dasharray="1 3"/><text x="22" y="8" fill="#667078" font-family="system-ui,-apple-system,Segoe UI,Helvetica,Arial,sans-serif" font-size="10.5">swing the CHoCH took out</text></g><g transform="translate(355.0,242)"><rect x="1" y="0" width="14" height="9" fill="#0E6E6B1F" stroke="#0E6E6B55"/><text x="22" y="8" fill="#667078" font-family="system-ui,-apple-system,Segoe UI,Helvetica,Arial,sans-serif" font-size="10.5">block zone</text></g><g transform="translate(443.0,242)"><rect x="2" y="-1" width="11" height="11" fill="none" stroke="#0E6E6B" stroke-width="1.6" rx="2"/><text x="22" y="8" fill="#667078" font-family="system-ui,-apple-system,Segoe UI,Helvetica,Arial,sans-serif" font-size="10.5">block candle</text></g><g transform="translate(541.8,242)"><rect x="4" y="-2" width="7" height="12" fill="#FFFFFF" stroke="#12171A" stroke-width="1.3"/><text x="22" y="8" fill="#667078" font-family="system-ui,-apple-system,Segoe UI,Helvetica,Arial,sans-serif" font-size="10.5">closed up</text></g><g transform="translate(624.4,242)"><rect x="4" y="-2" width="7" height="12" fill="#12171A" stroke="#12171A" stroke-width="1.3"/><text x="22" y="8" fill="#667078" font-family="system-ui,-apple-system,Segoe UI,Helvetica,Arial,sans-serif" font-size="10.5">closed down</text></g><g transform="translate(717.8,242)"><circle cx="8" cy="4" r="3.6" fill="#12171A"/><text x="22" y="8" fill="#667078" font-family="system-ui,-apple-system,Segoe UI,Helvetica,Arial,sans-serif" font-size="10.5">price now</text></g></svg>