<svg xmlns="http://www.w3.org/2000/svg" viewBox="0 0 880 258" width="880" height="258" role="img" aria-label="EURCHF long order block: the candles that formed it, and where price is now"><rect width="880" height="258" fill="#FFFFFF"/><text x="10" y="22" fill="#12171A" font-family="system-ui,-apple-system,Segoe UI,Helvetica,Arial,sans-serif" font-size="15" font-weight="700">EURCHF <tspan fill="#1E7A4C" font-size="12">LONG</tspan> <tspan fill="#667078" font-size="12">4-hour block</tspan></text><text x="10" y="38" fill="#667078" font-family="ui-monospace,SFMono-Regular,Menlo,Consolas,monospace" font-size="11">limit 0.94240 · stop 0.94128 · 11p = 1R · 1.44R away · waited 0d</text><text x="20" y="42" fill="#667078" font-family="system-ui,-apple-system,Segoe UI,Helvetica,Arial,sans-serif" font-size="10" font-weight="600">HOW IT FORMED · 2026-09-24T21:00:00.000000000Z</text><text x="360" y="42" fill="#667078" font-family="system-ui,-apple-system,Segoe UI,Helvetica,Arial,sans-serif" font-size="10" font-weight="600">WHERE PRICE IS NOW</text><rect x="10.0" y="120.9" width="272.0" height="24.6" fill="#0E6E6B1F"/><line x1="10.0" y1="98.7" x2="282.0" y2="98.7" stroke="#667078" stroke-width="1" stroke-dasharray="1 3"/><line x1="10.0" y1="120.9" x2="282.0" y2="120.9" stroke="#0E6E6B" stroke-width="1.4"/><line x1="20.0" y1="122.4" x2="20.0" y2="171.6" stroke="#12171A" stroke-width="1"/><rect x="14.5" y="125.8" width="11.0" height="22.7" fill="#12171A" stroke="#12171A" stroke-width="1"/><line x1="72.0" y1="106.9" x2="72.0" y2="153.3" stroke="#12171A" stroke-width="1"/><rect x="66.5" y="134.9" width="11.0" height="14.0" fill="#FFFFFF" stroke="#12171A" stroke-width="1"/><line x1="124.0" y1="123.1" x2="124.0" y2="145.1" stroke="#12171A" stroke-width="1"/><rect x="118.5" y="127.2" width="11.0" height="8.0" fill="#FFFFFF" stroke="#12171A" stroke-width="1"/><line x1="176.0" y1="120.9" x2="176.0" y2="145.5" stroke="#12171A" stroke-width="1"/><rect x="170.5" y="127.2" width="11.0" height="7.7" fill="#12171A" stroke="#12171A" stroke-width="1"/><line x1="228.0" y1="107.9" x2="228.0" y2="135.6" stroke="#12171A" stroke-width="1"/><rect x="222.5" y="109.8" width="11.0" height="25.8" fill="#FFFFFF" stroke="#12171A" stroke-width="1"/><line x1="280.0" y1="66.4" x2="280.0" y2="111.3" stroke="#12171A" stroke-width="1"/><rect x="274.5" y="81.9" width="11.0" height="28.0" fill="#FFFFFF" stroke="#12171A" stroke-width="1"/><rect x="167.5" y="117.9" width="17.0" height="30.6" fill="none" stroke="#0E6E6B" stroke-width="1.6" rx="2"/><text x="280.0" y="65" fill="#0E6E6B" text-anchor="middle" font-family="ui-monospace,SFMono-Regular,Menlo,Consolas,monospace" font-size="10" font-weight="700">C</text><line x1="10.0" y1="198.0" x2="282.0" y2="198.0" stroke="#E6EBEE" stroke-width="1"/><line x1="20.0" y1="198.0" x2="20.0" y2="201.0" stroke="#CBD4D9" stroke-width="1"/><text x="20.0" y="210.0" fill="#667078" text-anchor="start" font-family="ui-monospace,SFMono-Regular,Menlo,Consolas,monospace" font-size="9.5">09-24 09h</text><line x1="124.0" y1="198.0" x2="124.0" y2="201.0" stroke="#CBD4D9" stroke-width="1"/><text x="124.0" y="210.0" fill="#667078" text-anchor="middle" font-family="ui-monospace,SFMono-Regular,Menlo,Consolas,monospace" font-size="9.5">09-24 17h</text><line x1="228.0" y1="198.0" x2="228.0" y2="201.0" stroke="#CBD4D9" stroke-width="1"/><text x="228.0" y="210.0" fill="#667078" text-anchor="end" font-family="ui-monospace,SFMono-Regular,Menlo,Consolas,monospace" font-size="9.5">09-25 01h</text><text x="286.0" y="124.3" fill="#0E6E6B" font-family="ui-monospace,SFMono-Regular,Menlo,Consolas,monospace" font-size="10">0.94240</text><text x="286.0" y="102.1" fill="#667078" font-family="ui-monospace,SFMono-Regular,Menlo,Consolas,monospace" font-size="10">0.94332</text><rect x="354.0" y="121.2" width="458.0" height="10.1" fill="#0E6E6B1F"/><line x1="360.0" y1="86.7" x2="360.0" y2="103.2" stroke="#12171A" stroke-width="1"/><rect x="357.6" y="98.6" width="4.7" height="2.2" fill="#FFFFFF" stroke="#12171A" stroke-width="1"/><line x1="367.6" y1="72.3" x2="367.6" y2="98.8" stroke="#12171A" stroke-width="1"/><rect x="365.3" y="79.1" width="4.7" height="19.3" fill="#FFFFFF" stroke="#12171A" stroke-width="1"/><line x1="375.3" y1="74.2" x2="375.3" y2="81.9" stroke="#12171A" stroke-width="1"/><rect x="372.9" y="76.1" width="4.7" height="3.0" fill="#FFFFFF" stroke="#12171A" stroke-width="1"/><line x1="382.9" y1="73.4" x2="382.9" y2="81.3" stroke="#12171A" stroke-width="1"/><rect x="380.5" y="75.5" width="4.7" height="1.0" fill="#FFFFFF" stroke="#12171A" stroke-width="1"/><line x1="390.5" y1="71.1" x2="390.5" y2="83.3" stroke="#12171A" stroke-width="1"/><rect x="388.1" y="75.7" width="4.7" height="6.2" fill="#12171A" stroke="#12171A" stroke-width="1"/><line x1="398.1" y1="80.3" x2="398.1" y2="98.0" stroke="#12171A" stroke-width="1"/><rect x="395.8" y="81.9" width="4.7" height="15.9" fill="#12171A" stroke="#12171A" stroke-width="1"/><line x1="405.8" y1="97.0" x2="405.8" y2="120.8" stroke="#12171A" stroke-width="1"/><rect x="403.4" y="97.6" width="4.7" height="14.9" fill="#12171A" stroke="#12171A" stroke-width="1"/><line x1="413.4" y1="100.7" x2="413.4" y2="118.1" stroke="#12171A" stroke-width="1"/><rect x="411.0" y="112.6" width="4.7" height="4.6" fill="#12171A" stroke="#12171A" stroke-width="1"/><line x1="421.0" y1="103.8" x2="421.0" y2="117.7" stroke="#12171A" stroke-width="1"/><rect x="418.7" y="104.5" width="4.7" height="12.7" fill="#FFFFFF" stroke="#12171A" stroke-width="1"/><line x1="428.6" y1="102.4" x2="428.6" y2="111.7" stroke="#12171A" stroke-width="1"/><rect x="426.3" y="106.7" width="4.7" height="1.0" fill="#12171A" stroke="#12171A" stroke-width="1"/><line x1="436.3" y1="105.0" x2="436.3" y2="108.3" stroke="#12171A" stroke-width="1"/><rect x="433.9" y="105.9" width="4.7" height="1.8" fill="#FFFFFF" stroke="#12171A" stroke-width="1"/><line x1="443.9" y1="105.6" x2="443.9" y2="122.6" stroke="#12171A" stroke-width="1"/><rect x="441.5" y="106.1" width="4.7" height="8.5" fill="#12171A" stroke="#12171A" stroke-width="1"/><line x1="451.5" y1="94.4" x2="451.5" y2="115.0" stroke="#12171A" stroke-width="1"/><rect x="449.2" y="95.6" width="4.7" height="19.1" fill="#FFFFFF" stroke="#12171A" stroke-width="1"/><line x1="459.2" y1="81.2" x2="459.2" y2="99.4" stroke="#12171A" stroke-width="1"/><rect x="456.8" y="95.6" width="4.7" height="1.0" fill="#12171A" stroke="#12171A" stroke-width="1"/><line x1="466.8" y1="93.2" x2="466.8" y2="98.2" stroke="#12171A" stroke-width="1"/><rect x="464.4" y="95.2" width="4.7" height="1.4" fill="#FFFFFF" stroke="#12171A" stroke-width="1"/><line x1="474.4" y1="92.7" x2="474.4" y2="103.3" stroke="#12171A" stroke-width="1"/><rect x="472.0" y="94.3" width="4.7" height="8.2" fill="#FFFFFF" stroke="#12171A" stroke-width="1"/><line x1="482.0" y1="91.4" x2="482.0" y2="97.3" stroke="#12171A" stroke-width="1"/><rect x="479.7" y="94.4" width="4.7" height="1.0" fill="#12171A" stroke="#12171A" stroke-width="1"/><line x1="489.7" y1="86.2" x2="489.7" y2="98.2" stroke="#12171A" stroke-width="1"/><rect x="487.3" y="94.9" width="4.7" height="2.1" fill="#12171A" stroke="#12171A" stroke-width="1"/><line x1="497.3" y1="91.2" x2="497.3" y2="103.1" stroke="#12171A" stroke-width="1"/><rect x="494.9" y="97.2" width="4.7" height="3.2" fill="#12171A" stroke="#12171A" stroke-width="1"/><line x1="504.9" y1="93.6" x2="504.9" y2="104.7" stroke="#12171A" stroke-width="1"/><rect x="502.6" y="96.8" width="4.7" height="3.6" fill="#FFFFFF" stroke="#12171A" stroke-width="1"/><line x1="512.5" y1="72.4" x2="512.5" y2="108.3" stroke="#12171A" stroke-width="1"/><rect x="510.2" y="77.5" width="4.7" height="19.2" fill="#FFFFFF" stroke="#12171A" stroke-width="1"/><line x1="520.2" y1="73.4" x2="520.2" y2="92.7" stroke="#12171A" stroke-width="1"/><rect x="517.8" y="81.9" width="4.7" height="1.0" fill="#12171A" stroke="#12171A" stroke-width="1"/><line x1="527.8" y1="79.1" x2="527.8" y2="84.5" stroke="#12171A" stroke-width="1"/><rect x="525.4" y="79.1" width="4.7" height="3.2" fill="#FFFFFF" stroke="#12171A" stroke-width="1"/><line x1="535.4" y1="72.8" x2="535.4" y2="89.8" stroke="#12171A" stroke-width="1"/><rect x="533.1" y="76.1" width="4.7" height="2.8" fill="#FFFFFF" stroke="#12171A" stroke-width="1"/><line x1="543.1" y1="66.4" x2="543.1" y2="84.9" stroke="#12171A" stroke-width="1"/><rect x="540.7" y="76.1" width="4.7" height="3.4" fill="#12171A" stroke="#12171A" stroke-width="1"/><line x1="550.7" y1="78.5" x2="550.7" y2="91.2" stroke="#12171A" stroke-width="1"/><rect x="548.3" y="78.6" width="4.7" height="1.0" fill="#FFFFFF" stroke="#12171A" stroke-width="1"/><line x1="558.3" y1="75.7" x2="558.3" y2="82.7" stroke="#12171A" stroke-width="1"/><rect x="555.9" y="78.5" width="4.7" height="4.0" fill="#12171A" stroke="#12171A" stroke-width="1"/><line x1="565.9" y1="76.9" x2="565.9" y2="87.1" stroke="#12171A" stroke-width="1"/><rect x="563.6" y="80.5" width="4.7" height="3.6" fill="#FFFFFF" stroke="#12171A" stroke-width="1"/><line x1="573.6" y1="74.2" x2="573.6" y2="93.0" stroke="#12171A" stroke-width="1"/><rect x="571.2" y="80.5" width="4.7" height="5.9" fill="#12171A" stroke="#12171A" stroke-width="1"/><line x1="581.2" y1="68.6" x2="581.2" y2="87.1" stroke="#12171A" stroke-width="1"/><rect x="578.8" y="77.5" width="4.7" height="8.7" fill="#FFFFFF" stroke="#12171A" stroke-width="1"/><line x1="588.8" y1="70.4" x2="588.8" y2="88.1" stroke="#12171A" stroke-width="1"/><rect x="586.4" y="77.5" width="4.7" height="8.3" fill="#12171A" stroke="#12171A" stroke-width="1"/><line x1="596.4" y1="84.5" x2="596.4" y2="105.5" stroke="#12171A" stroke-width="1"/><rect x="594.1" y="86.0" width="4.7" height="19.0" fill="#12171A" stroke="#12171A" stroke-width="1"/><line x1="604.1" y1="102.1" x2="604.1" y2="108.7" stroke="#12171A" stroke-width="1"/><rect x="601.7" y="103.4" width="4.7" height="1.5" fill="#FFFFFF" stroke="#12171A" stroke-width="1"/><line x1="611.7" y1="94.9" x2="611.7" y2="108.5" stroke="#12171A" stroke-width="1"/><rect x="609.3" y="98.9" width="4.7" height="3.5" fill="#12171A" stroke="#12171A" stroke-width="1"/><line x1="619.3" y1="98.9" x2="619.3" y2="103.5" stroke="#12171A" stroke-width="1"/><rect x="617.0" y="99.9" width="4.7" height="2.3" fill="#FFFFFF" stroke="#12171A" stroke-width="1"/><line x1="626.9" y1="92.6" x2="626.9" y2="102.5" stroke="#12171A" stroke-width="1"/><rect x="624.6" y="93.0" width="4.7" height="6.9" fill="#FFFFFF" stroke="#12171A" stroke-width="1"/><line x1="634.6" y1="91.8" x2="634.6" y2="115.4" stroke="#12171A" stroke-width="1"/><rect x="632.2" y="93.0" width="4.7" height="16.2" fill="#12171A" stroke="#12171A" stroke-width="1"/><line x1="642.2" y1="107.3" x2="642.2" y2="130.7" stroke="#12171A" stroke-width="1"/><rect x="639.8" y="109.3" width="4.7" height="18.2" fill="#12171A" stroke="#12171A" stroke-width="1"/><line x1="649.8" y1="125.9" x2="649.8" y2="132.5" stroke="#12171A" stroke-width="1"/><rect x="647.5" y="127.5" width="4.7" height="3.7" fill="#12171A" stroke="#12171A" stroke-width="1"/><line x1="657.5" y1="120.4" x2="657.5" y2="135.1" stroke="#12171A" stroke-width="1"/><rect x="655.1" y="120.4" width="4.7" height="11.9" fill="#12171A" stroke="#12171A" stroke-width="1"/><line x1="665.1" y1="129.7" x2="665.1" y2="134.5" stroke="#12171A" stroke-width="1"/><rect x="662.7" y="132.3" width="4.7" height="1.0" fill="#12171A" stroke="#12171A" stroke-width="1"/><line x1="672.7" y1="127.5" x2="672.7" y2="147.0" stroke="#12171A" stroke-width="1"/><rect x="670.3" y="132.4" width="4.7" height="8.8" fill="#12171A" stroke="#12171A" stroke-width="1"/><line x1="680.3" y1="138.2" x2="680.3" y2="161.2" stroke="#12171A" stroke-width="1"/><rect x="678.0" y="141.1" width="4.7" height="7.0" fill="#12171A" stroke="#12171A" stroke-width="1"/><line x1="688.0" y1="144.0" x2="688.0" y2="156.1" stroke="#12171A" stroke-width="1"/><rect x="685.6" y="148.3" width="4.7" height="1.0" fill="#12171A" stroke="#12171A" stroke-width="1"/><line x1="695.6" y1="147.0" x2="695.6" y2="156.7" stroke="#12171A" stroke-width="1"/><rect x="693.2" y="148.4" width="4.7" height="3.0" fill="#12171A" stroke="#12171A" stroke-width="1"/><line x1="703.2" y1="145.1" x2="703.2" y2="152.3" stroke="#12171A" stroke-width="1"/><rect x="700.9" y="146.1" width="4.7" height="3.9" fill="#12171A" stroke="#12171A" stroke-width="1"/><line x1="710.8" y1="148.2" x2="710.8" y2="157.7" stroke="#12171A" stroke-width="1"/><rect x="708.5" y="150.0" width="4.7" height="7.5" fill="#12171A" stroke="#12171A" stroke-width="1"/><line x1="718.5" y1="146.0" x2="718.5" y2="158.3" stroke="#12171A" stroke-width="1"/><rect x="716.1" y="155.5" width="4.7" height="2.0" fill="#FFFFFF" stroke="#12171A" stroke-width="1"/><line x1="726.1" y1="150.8" x2="726.1" y2="160.3" stroke="#12171A" stroke-width="1"/><rect x="723.7" y="153.4" width="4.7" height="2.1" fill="#FFFFFF" stroke="#12171A" stroke-width="1"/><line x1="733.7" y1="142.8" x2="733.7" y2="156.7" stroke="#12171A" stroke-width="1"/><rect x="731.4" y="150.1" width="4.7" height="3.2" fill="#FFFFFF" stroke="#12171A" stroke-width="1"/><line x1="741.4" y1="149.4" x2="741.4" y2="164.4" stroke="#12171A" stroke-width="1"/><rect x="739.0" y="150.2" width="4.7" height="1.0" fill="#12171A" stroke="#12171A" stroke-width="1"/><line x1="749.0" y1="150.2" x2="749.0" y2="160.3" stroke="#12171A" stroke-width="1"/><rect x="746.6" y="158.5" width="4.7" height="1.0" fill="#FFFFFF" stroke="#12171A" stroke-width="1"/><line x1="756.6" y1="155.9" x2="756.6" y2="166.6" stroke="#12171A" stroke-width="1"/><rect x="754.2" y="158.3" width="4.7" height="3.5" fill="#12171A" stroke="#12171A" stroke-width="1"/><line x1="764.2" y1="112.1" x2="764.2" y2="171.6" stroke="#12171A" stroke-width="1"/><rect x="761.9" y="123.0" width="4.7" height="39.1" fill="#FFFFFF" stroke="#12171A" stroke-width="1"/><line x1="771.9" y1="121.8" x2="771.9" y2="142.0" stroke="#12171A" stroke-width="1"/><rect x="769.5" y="123.2" width="4.7" height="9.3" fill="#12171A" stroke="#12171A" stroke-width="1"/><line x1="779.5" y1="115.4" x2="779.5" y2="134.5" stroke="#12171A" stroke-width="1"/><rect x="777.1" y="126.9" width="4.7" height="5.8" fill="#FFFFFF" stroke="#12171A" stroke-width="1"/><line x1="787.1" y1="122.1" x2="787.1" y2="131.1" stroke="#12171A" stroke-width="1"/><rect x="784.8" y="123.8" width="4.7" height="3.3" fill="#FFFFFF" stroke="#12171A" stroke-width="1"/><line x1="794.7" y1="121.2" x2="794.7" y2="131.3" stroke="#12171A" stroke-width="1"/><rect x="792.4" y="123.8" width="4.7" height="3.2" fill="#12171A" stroke="#12171A" stroke-width="1"/><line x1="802.4" y1="115.8" x2="802.4" y2="127.2" stroke="#12171A" stroke-width="1"/><rect x="800.0" y="116.6" width="4.7" height="10.6" fill="#FFFFFF" stroke="#12171A" stroke-width="1"/><line x1="810.0" y1="98.8" x2="810.0" y2="117.2" stroke="#12171A" stroke-width="1"/><rect x="807.6" y="105.1" width="4.7" height="11.5" fill="#FFFFFF" stroke="#12171A" stroke-width="1"/><line x1="354.0" y1="121.2" x2="812.0" y2="121.2" stroke="#0E6E6B" stroke-width="1.4"/><line x1="354.0" y1="132.3" x2="812.0" y2="132.3" stroke="#1E7A4C" stroke-width="1.4" stroke-dasharray="4 3"/><circle cx="810.0" cy="105.1" r="3.6" fill="#12171A"/><line x1="354.0" y1="198.0" x2="812.0" y2="198.0" stroke="#E6EBEE" stroke-width="1"/><line x1="360.0" y1="198.0" x2="360.0" y2="201.0" stroke="#CBD4D9" stroke-width="1"/><text x="360.0" y="210.0" fill="#667078" text-anchor="start" font-family="ui-monospace,SFMono-Regular,Menlo,Consolas,monospace" font-size="9.5">09-11 09h</text><line x1="474.4" y1="198.0" x2="474.4" y2="201.0" stroke="#CBD4D9" stroke-width="1"/><text x="474.4" y="210.0" fill="#667078" text-anchor="middle" font-family="ui-monospace,SFMono-Regular,Menlo,Consolas,monospace" font-size="9.5">09-15 21h</text><line x1="588.8" y1="198.0" x2="588.8" y2="201.0" stroke="#CBD4D9" stroke-width="1"/><text x="588.8" y="210.0" fill="#667078" text-anchor="middle" font-family="ui-monospace,SFMono-Regular,Menlo,Consolas,monospace" font-size="9.5">09-18 09h</text><line x1="703.2" y1="198.0" x2="703.2" y2="201.0" stroke="#CBD4D9" stroke-width="1"/><text x="703.2" y="210.0" fill="#667078" text-anchor="end" font-family="ui-monospace,SFMono-Regular,Menlo,Consolas,monospace" font-size="9.5">09-22 21h</text><text x="816.0" y="124.6" fill="#0E6E6B" font-family="ui-monospace,SFMono-Regular,Menlo,Consolas,monospace" font-size="10">0.94240</text><text x="816.0" y="135.7" fill="#1E7A4C" font-family="ui-monospace,SFMono-Regular,Menlo,Consolas,monospace" font-size="10">0.94128</text><text x="816.0" y="108.5" fill="#12171A" font-family="ui-monospace,SFMono-Regular,Menlo,Consolas,monospace" font-size="10">0.94402</text><g transform="translate(10.0,242)"><line x1="0" y1="4" x2="16" y2="4" stroke="#0E6E6B" stroke-width="2"/><text x="22" y="8" fill="#667078" font-family="system-ui,-apple-system,Segoe UI,Helvetica,Arial,sans-serif" font-size="10.5">limit (zone edge)</text></g><g transform="translate(135.8,242)"><line x1="0" y1="4" x2="16" y2="4" stroke="#1E7A4C" stroke-width="2" stroke-dasharray="4 3"/><text x="22" y="8" fill="#667078" font-family="system-ui,-apple-system,Segoe UI,Helvetica,Arial,sans-serif" font-size="10.5">stop</text></g><g transform="translate(191.4,242)"><line x1="0" y1="4" x2="16" y2="4" stroke="#667078" stroke-width="1" stroke-dasharray="1 3"/><text x="22" y="8" fill="#667078" font-family="system-ui,-apple-system,Segoe UI,Helvetica,Arial,sans-serif" font-size="10.5">swing the CHoCH took out</text></g><g transform="translate(355.0,242)"><rect x="1" y="0" width="14" height="9" fill="#0E6E6B1F" stroke="#0E6E6B55"/><text x="22" y="8" fill="#667078" font-family="system-ui,-apple-system,Segoe UI,Helvetica,Arial,sans-serif" font-size="10.5">block zone</text></g><g transform="translate(443.0,242)"><rect x="2" y="-1" width="11" height="11" fill="none" stroke="#0E6E6B" stroke-width="1.6" rx="2"/><text x="22" y="8" fill="#667078" font-family="system-ui,-apple-system,Segoe UI,Helvetica,Arial,sans-serif" font-size="10.5">block candle</text></g><g transform="translate(541.8,242)"><rect x="4" y="-2" width="7" height="12" fill="#FFFFFF" stroke="#12171A" stroke-width="1.3"/><text x="22" y="8" fill="#667078" font-family="system-ui,-apple-system,Segoe UI,Helvetica,Arial,sans-serif" font-size="10.5">closed up</text></g><g transform="translate(624.4,242)"><rect x="4" y="-2" width="7" height="12" fill="#12171A" stroke="#12171A" stroke-width="1.3"/><text x="22" y="8" fill="#667078" font-family="system-ui,-apple-system,Segoe UI,Helvetica,Arial,sans-serif" font-size="10.5">closed down</text></g><g transform="translate(717.8,242)"><circle cx="8" cy="4" r="3.6" fill="#12171A"/><text x="22" y="8" fill="#667078" font-family="system-ui,-apple-system,Segoe UI,Helvetica,Arial,sans-serif" font-size="10.5">price now</text></g></svg>